G04 #@! TF.FileFunction,Soldermask,Bot*
%FSLAX46Y46*%
G04 Gerber Fmt 4.6, Leading zero omitted, Abs format (unit mm)*
G04 Created by KiCad (PCBNEW (2015-08-20 BZR 6109, Git 2605ab0)-product) date Sat 10 Oct 2015 06:29:31 PM EDT*
%MOMM*%
G01*
G04 APERTURE LIST*
%ADD10C,0.100000*%
%ADD11O,1.727200X2.032000*%
%ADD12C,4.064000*%
%ADD13C,3.850640*%
%ADD14R,1.524000X1.524000*%
%ADD15C,1.524000*%
%ADD16C,2.540000*%
%ADD17R,1.727200X1.727200*%
%ADD18O,1.727200X1.727200*%
%ADD19R,2.032000X2.032000*%
%ADD20O,2.032000X2.032000*%
G04 APERTURE END LIST*
D10*
D11*
X27940000Y2540000D03*
X30480000Y2540000D03*
X33020000Y2540000D03*
X35560000Y2540000D03*
X38100000Y2540000D03*
X40640000Y2540000D03*
X43180000Y2540000D03*
X45720000Y2540000D03*
X50800000Y2540000D03*
X53340000Y2540000D03*
X55880000Y2540000D03*
X58420000Y2540000D03*
X60960000Y2540000D03*
X63500000Y2540000D03*
X18796000Y50800000D03*
X21336000Y50800000D03*
X23876000Y50800000D03*
X26416000Y50800000D03*
X28956000Y50800000D03*
X31496000Y50800000D03*
X34036000Y50800000D03*
X36576000Y50800000D03*
X39116000Y50800000D03*
X41656000Y50800000D03*
X45720000Y50800000D03*
X48260000Y50800000D03*
X50800000Y50800000D03*
X53340000Y50800000D03*
X55880000Y50800000D03*
X58420000Y50800000D03*
X60960000Y50800000D03*
X63500000Y50800000D03*
D12*
X13970000Y2540000D03*
X66040000Y7620000D03*
X15240000Y50800000D03*
X66040000Y35560000D03*
D13*
X11110000Y25730000D03*
X11110000Y37160000D03*
D14*
X17460000Y35890000D03*
D15*
X20000000Y34620000D03*
X17460000Y33350000D03*
X20000000Y32080000D03*
X17460000Y30810000D03*
X20000000Y29540000D03*
X17460000Y28270000D03*
D16*
X14158000Y23571000D03*
X14158000Y39319000D03*
D15*
X6207800Y27660400D03*
X6207800Y37769600D03*
X7731800Y25120400D03*
X7731800Y35229600D03*
X20000000Y27000000D03*
D17*
X63000000Y40000000D03*
D18*
X60460000Y40000000D03*
X63000000Y42540000D03*
X60460000Y42540000D03*
X63000000Y45080000D03*
X60460000Y45080000D03*
D19*
X50000000Y47000000D03*
D20*
X52540000Y47000000D03*
M02*
