M48
;DRILL file {KiCad (2015-08-20 BZR 6109, Git 2605ab0)-product} date Sat 10 Oct 2015 06:07:41 PM EDT
;FORMAT={-:-/ absolute / inch / decimal}
FMAT,2
INCH,TZ
T1C0.016
T2C0.040
T3C0.070
T4C0.120
T5C0.130
%
G90
G05
M72
T1
X0.1378Y0.4921
X0.1378Y0.0591
X0.2362Y1.7559
X0.2992Y0.8346
X0.3543Y1.7559
X0.3898Y1.3465
X0.4528Y1.2008
X0.5591Y1.1654
X0.6299Y1.3583
X0.7087Y0.8858
X0.7087Y0.3937
X0.8071Y1.622
X0.9094Y1.5787
X0.9449Y0.9449
X0.9449Y0.6299
X0.9843Y0.0787
X1.1693Y1.4606
X1.1732Y1.2598
X1.1811Y1.0433
X1.1811Y0.9252
X1.378Y1.1496
X1.5945Y1.1614
X1.6457Y1.2992
X1.6732Y1.6929
X1.7283Y1.5787
X1.7323Y0.2756
X1.7756Y1.4094
X1.7953Y1.1929
X1.9291Y1.6496
X1.937Y1.7244
X1.9606Y1.5787
X1.9685Y1.4409
X2.0079Y0.748
X2.0866Y1.1024
X2.1024Y1.3661
X2.126Y1.7244
X2.126Y1.2205
X2.1457Y1.9291
X2.1772Y1.5354
X2.2441Y1.7244
X2.2638Y1.811
X2.3228Y1.5748
X2.4409Y0.2756
X2.5591Y1.5354
X2.5591Y1.1024
X2.5591Y0.6299
T2
X0.2444Y1.487
X0.2444Y1.089
X0.3044Y1.387
X0.3044Y0.989
X0.6874Y1.413
X0.6874Y1.313
X0.6874Y1.213
X0.6874Y1.113
X0.74Y2.
X0.7874Y1.363
X0.7874Y1.263
X0.7874Y1.163
X0.7874Y1.063
X0.84Y2.
X0.94Y2.
X1.04Y2.
X1.1Y0.1
X1.14Y2.
X1.2Y0.1
X1.24Y2.
X1.3Y0.1
X1.34Y2.
X1.4Y0.1
X1.44Y2.
X1.5Y0.1
X1.54Y2.
X1.6Y0.1
X1.64Y2.
X1.7Y0.1
X1.8Y2.
X1.8Y0.1
X1.9Y2.
X1.9685Y1.8504
X2.Y2.
X2.Y0.1
X2.0685Y1.8504
X2.1Y2.
X2.1Y0.1
X2.2Y2.
X2.2Y0.1
X2.3Y2.
X2.3Y0.1
X2.3803Y1.7748
X2.3803Y1.6748
X2.3803Y1.5748
X2.4Y2.
X2.4Y0.1
X2.4803Y1.7748
X2.4803Y1.6748
X2.4803Y1.5748
X2.5Y2.
X2.5Y0.1
T3
X0.5574Y1.548
X0.5574Y0.928
T4
X0.55Y0.1
X0.6Y2.
X2.6Y1.4
X2.6Y0.3
T5
X0.4374Y1.463
X0.4374Y1.013
T0
M30
