G04 #@! TF.FileFunction,Copper,L1,Top,Signal*
%FSLAX46Y46*%
G04 Gerber Fmt 4.6, Leading zero omitted, Abs format (unit mm)*
G04 Created by KiCad (PCBNEW (2015-08-20 BZR 6109, Git 2605ab0)-product) date Sat 10 Oct 2015 06:29:31 PM EDT*
%MOMM*%
G01*
G04 APERTURE LIST*
%ADD10C,0.100000*%
%ADD11O,1.727200X2.032000*%
%ADD12C,4.064000*%
%ADD13R,1.250000X1.500000*%
%ADD14R,1.500000X1.250000*%
%ADD15C,3.850640*%
%ADD16R,1.524000X1.524000*%
%ADD17C,1.524000*%
%ADD18C,2.540000*%
%ADD19R,1.727200X1.727200*%
%ADD20O,1.727200X1.727200*%
%ADD21R,2.032000X2.032000*%
%ADD22O,2.032000X2.032000*%
%ADD23R,1.500000X1.300000*%
%ADD24R,1.300000X1.500000*%
%ADD25R,2.700000X3.200000*%
%ADD26R,3.200000X2.700000*%
%ADD27R,1.060000X0.380000*%
%ADD28R,0.850000X0.650000*%
%ADD29C,0.600000*%
%ADD30C,0.250000*%
%ADD31C,0.254000*%
G04 APERTURE END LIST*
D10*
D11*
X27940000Y2540000D03*
X30480000Y2540000D03*
X33020000Y2540000D03*
X35560000Y2540000D03*
X38100000Y2540000D03*
X40640000Y2540000D03*
X43180000Y2540000D03*
X45720000Y2540000D03*
X50800000Y2540000D03*
X53340000Y2540000D03*
X55880000Y2540000D03*
X58420000Y2540000D03*
X60960000Y2540000D03*
X63500000Y2540000D03*
X18796000Y50800000D03*
X21336000Y50800000D03*
X23876000Y50800000D03*
X26416000Y50800000D03*
X28956000Y50800000D03*
X31496000Y50800000D03*
X34036000Y50800000D03*
X36576000Y50800000D03*
X39116000Y50800000D03*
X41656000Y50800000D03*
X45720000Y50800000D03*
X48260000Y50800000D03*
X50800000Y50800000D03*
X53340000Y50800000D03*
X55880000Y50800000D03*
X58420000Y50800000D03*
X60960000Y50800000D03*
X63500000Y50800000D03*
D12*
X13970000Y2540000D03*
X66040000Y7620000D03*
X15240000Y50800000D03*
X66040000Y35560000D03*
D13*
X46000000Y39250000D03*
X46000000Y36750000D03*
X30000000Y13750000D03*
X30000000Y16250000D03*
X30000000Y19750000D03*
X30000000Y22250000D03*
D14*
X46250000Y43000000D03*
X43750000Y43000000D03*
D15*
X11110000Y25730000D03*
X11110000Y37160000D03*
D16*
X17460000Y35890000D03*
D17*
X20000000Y34620000D03*
X17460000Y33350000D03*
X20000000Y32080000D03*
X17460000Y30810000D03*
X20000000Y29540000D03*
X17460000Y28270000D03*
D18*
X14158000Y23571000D03*
X14158000Y39319000D03*
D17*
X6207800Y27660400D03*
X6207800Y37769600D03*
X7731800Y25120400D03*
X7731800Y35229600D03*
X20000000Y27000000D03*
D19*
X63000000Y40000000D03*
D20*
X60460000Y40000000D03*
X63000000Y42540000D03*
X60460000Y42540000D03*
X63000000Y45080000D03*
X60460000Y45080000D03*
D21*
X50000000Y47000000D03*
D22*
X52540000Y47000000D03*
D23*
X52650000Y38000000D03*
X55350000Y38000000D03*
X40650000Y37000000D03*
X43350000Y37000000D03*
X40350000Y34000000D03*
X37650000Y34000000D03*
D24*
X50000000Y35350000D03*
X50000000Y32650000D03*
X48000000Y35350000D03*
X48000000Y32650000D03*
D23*
X48650000Y30000000D03*
X51350000Y30000000D03*
X52650000Y40000000D03*
X55350000Y40000000D03*
X55350000Y42000000D03*
X52650000Y42000000D03*
D25*
X26050000Y37000000D03*
X33950000Y37000000D03*
X26050000Y32000000D03*
X33950000Y32000000D03*
D24*
X33000000Y19650000D03*
X33000000Y22350000D03*
X33000000Y13650000D03*
X33000000Y16350000D03*
D23*
X48650000Y28000000D03*
X51350000Y28000000D03*
D24*
X6000000Y40650000D03*
X6000000Y43350000D03*
X9000000Y40650000D03*
X9000000Y43350000D03*
D26*
X18000000Y20450000D03*
X18000000Y12550000D03*
D27*
X45100000Y34975000D03*
X45100000Y34325000D03*
X42900000Y34975000D03*
X42900000Y34325000D03*
X42900000Y33675000D03*
X42900000Y33025000D03*
X45100000Y33675000D03*
X45100000Y33025000D03*
D28*
X48225000Y42825000D03*
X49775000Y42825000D03*
X49775000Y41175000D03*
X48225000Y41175000D03*
D26*
X26000000Y26950000D03*
X26000000Y19050000D03*
D29*
X45100000Y35800000D03*
X54500000Y49000000D03*
X24000000Y16000000D03*
X3500000Y12500000D03*
X3500000Y1500000D03*
X24000000Y24000000D03*
X30000000Y23500000D03*
X30000000Y26500000D03*
X51000000Y19000000D03*
X54000000Y31000000D03*
X18000000Y10000000D03*
X25000000Y2000000D03*
X65000000Y16000000D03*
X65000000Y28000000D03*
X62000000Y7000000D03*
X44000000Y7000000D03*
X65000000Y39000000D03*
X35000000Y29200000D03*
X40500000Y29500000D03*
X29800000Y32000000D03*
X45600000Y30300000D03*
X53400000Y34700000D03*
X43900000Y40100000D03*
X23100000Y40100000D03*
X29700000Y37100000D03*
X49800000Y40100000D03*
X50000000Y36600000D03*
X6000000Y44600000D03*
X9000000Y44600000D03*
X42500000Y43000000D03*
X41800000Y33000000D03*
X57500000Y46000000D03*
X57000000Y43800000D03*
X54000000Y43800000D03*
X49200000Y43800000D03*
X18000000Y22500000D03*
X7600000Y21200000D03*
X9900000Y34200000D03*
X16000000Y34500000D03*
X11500000Y30500000D03*
X14200000Y29600000D03*
X55300000Y39000000D03*
X20500000Y41200000D03*
X59000000Y40000000D03*
X53000000Y28000000D03*
X49000000Y41900000D03*
D30*
X45100000Y35800000D02*
X45100000Y35850000D01*
X45100000Y34975000D02*
X45100000Y35800000D01*
X45100000Y35850000D02*
X46000000Y36750000D01*
X52650000Y42000000D02*
X52650000Y44150000D01*
X54500000Y46000000D02*
X54500000Y49000000D01*
X52650000Y44150000D02*
X54500000Y46000000D01*
X18000000Y12550000D02*
X20550000Y12550000D01*
X20550000Y12550000D02*
X24000000Y16000000D01*
X3500000Y1500000D02*
X3500000Y12500000D01*
X3550000Y12550000D02*
X3500000Y12500000D01*
X3550000Y12550000D02*
X18000000Y12550000D01*
X30000000Y22250000D02*
X25750000Y22250000D01*
X25750000Y22250000D02*
X24000000Y24000000D01*
X30000000Y26500000D02*
X30000000Y23500000D01*
X30000000Y23500000D02*
X30000000Y22250000D01*
X51000000Y19000000D02*
X54500000Y22500000D01*
X47650000Y22350000D02*
X51000000Y19000000D01*
X33000000Y22350000D02*
X47650000Y22350000D01*
X54500000Y30500000D02*
X54000000Y31000000D01*
X54500000Y22500000D02*
X54500000Y30500000D01*
X18000000Y10000000D02*
X18000000Y9000000D01*
X18000000Y12050000D02*
X18000000Y10000000D01*
X18000000Y9000000D02*
X25000000Y2000000D01*
X18000000Y13500000D02*
X18000000Y12050000D01*
X62000000Y16000000D02*
X65000000Y16000000D01*
X62000000Y28000000D02*
X65000000Y28000000D01*
X62000000Y7000000D02*
X62000000Y16000000D01*
X62000000Y16000000D02*
X62000000Y28000000D01*
X62000000Y28000000D02*
X62000000Y36000000D01*
X43180000Y2540000D02*
X43180000Y6180000D01*
X43180000Y6180000D02*
X44000000Y7000000D01*
X62000000Y7000000D02*
X44000000Y7000000D01*
X62000000Y36000000D02*
X65000000Y39000000D01*
X35000000Y29500000D02*
X35000000Y29200000D01*
X40500000Y29500000D02*
X44800000Y29500000D01*
X32300000Y29500000D02*
X35000000Y29500000D01*
X35000000Y29500000D02*
X40500000Y29500000D01*
X32300000Y34500000D02*
X29800000Y32000000D01*
X29800000Y32000000D02*
X32300000Y29500000D01*
X44800000Y29500000D02*
X45600000Y30300000D01*
X50000000Y35350000D02*
X52750000Y35350000D01*
X52750000Y35350000D02*
X53400000Y34700000D01*
X23100000Y40100000D02*
X43900000Y40100000D01*
X44750000Y39250000D02*
X43900000Y40100000D01*
X44750000Y39250000D02*
X46000000Y39250000D01*
X36400000Y34000000D02*
X36100000Y34000000D01*
X37650000Y34000000D02*
X36400000Y34000000D01*
X32300000Y34500000D02*
X29700000Y37100000D01*
X35600000Y34500000D02*
X32300000Y34500000D01*
X36100000Y34000000D02*
X35600000Y34500000D01*
X49775000Y41175000D02*
X49775000Y40125000D01*
X49775000Y40125000D02*
X49800000Y40100000D01*
X50000000Y35350000D02*
X50000000Y36600000D01*
X6000000Y43350000D02*
X6000000Y44600000D01*
X9000000Y43350000D02*
X9000000Y44600000D01*
X43750000Y43000000D02*
X42500000Y43000000D01*
X42900000Y33025000D02*
X41825000Y33025000D01*
X41825000Y33025000D02*
X41800000Y33000000D01*
X57500000Y46000000D02*
X57000000Y45500000D01*
X57000000Y45500000D02*
X57000000Y43800000D01*
X52900000Y40000000D02*
X54000000Y41100000D01*
X54000000Y43300000D02*
X54000000Y41100000D01*
X54000000Y43300000D02*
X54000000Y43800000D01*
X52900000Y40000000D02*
X52650000Y40000000D01*
X49200000Y43800000D02*
X48225000Y42825000D01*
X48225000Y42825000D02*
X46425000Y42825000D01*
X46425000Y42825000D02*
X46250000Y43000000D01*
X30000000Y18000000D02*
X27050000Y18000000D01*
X27050000Y18000000D02*
X26000000Y19050000D01*
X33000000Y18000000D02*
X30000000Y18000000D01*
X33000000Y19650000D02*
X33000000Y18000000D01*
X33000000Y18000000D02*
X33000000Y16350000D01*
X30000000Y19750000D02*
X30000000Y18000000D01*
X30000000Y18000000D02*
X30000000Y16250000D01*
X20000000Y29540000D02*
X20000000Y28600000D01*
X22500000Y22200000D02*
X25650000Y19050000D01*
X22500000Y26100000D02*
X22500000Y22200000D01*
X20000000Y28600000D02*
X22500000Y26100000D01*
X25650000Y19050000D02*
X26000000Y19050000D01*
X25750000Y20050000D02*
X26000000Y20050000D01*
X25750000Y20050000D02*
X26000000Y20050000D01*
X20000000Y29540000D02*
X20000000Y29000000D01*
X25750000Y20050000D02*
X26000000Y20050000D01*
X17460000Y35890000D02*
X21890000Y35890000D01*
X23000000Y37000000D02*
X26050000Y37000000D01*
X21890000Y35890000D02*
X23000000Y37000000D01*
X25940000Y35890000D02*
X26050000Y36000000D01*
X17460000Y33350000D02*
X21650000Y33350000D01*
X23000000Y32000000D02*
X26050000Y32000000D01*
X21650000Y33350000D02*
X23000000Y32000000D01*
X26050000Y31450000D02*
X26050000Y31000000D01*
X20000000Y32080000D02*
X20000000Y31500000D01*
X20000000Y31500000D02*
X23500000Y28000000D01*
X23500000Y28000000D02*
X24950000Y28000000D01*
X24950000Y28000000D02*
X26000000Y26950000D01*
X26000000Y27950000D02*
X48600000Y27950000D01*
X48600000Y27950000D02*
X48650000Y28000000D01*
X25750000Y27950000D02*
X26000000Y27950000D01*
X18000000Y20450000D02*
X18000000Y22500000D01*
X14158000Y23571000D02*
X14158000Y23558000D01*
X14158000Y23558000D02*
X11800000Y21200000D01*
X11800000Y21200000D02*
X7600000Y21200000D01*
X14158000Y35958000D02*
X12400000Y34200000D01*
X12400000Y34200000D02*
X9900000Y34200000D01*
X14158000Y39319000D02*
X14158000Y35958000D01*
X6207800Y27660400D02*
X6207800Y27707800D01*
X6207800Y27707800D02*
X8900000Y30400000D01*
X8900000Y30400000D02*
X8900000Y36100000D01*
X8900000Y36100000D02*
X8500000Y36500000D01*
X8500000Y36500000D02*
X8500000Y40150000D01*
X8500000Y40150000D02*
X9000000Y40650000D01*
X51350000Y30000000D02*
X51500000Y30000000D01*
X51500000Y30000000D02*
X55350000Y33850000D01*
X55300000Y39000000D02*
X55350000Y39000000D01*
X55880000Y50800000D02*
X55880000Y42530000D01*
X55880000Y42530000D02*
X55350000Y42000000D01*
X55350000Y40000000D02*
X55350000Y42000000D01*
X55350000Y38000000D02*
X55350000Y39000000D01*
X55350000Y39000000D02*
X55350000Y40000000D01*
X55350000Y33850000D02*
X55350000Y38000000D01*
X10300000Y31000000D02*
X17200000Y37900000D01*
X17200000Y37900000D02*
X20500000Y41200000D01*
X10300000Y31000000D02*
X10300000Y29000000D01*
X10300000Y29000000D02*
X7731800Y26431800D01*
X7731800Y26431800D02*
X7731800Y25120400D01*
X63000000Y42540000D02*
X63000000Y42600000D01*
X63000000Y42600000D02*
X64200000Y43800000D01*
X64200000Y43800000D02*
X64200000Y47560000D01*
X64200000Y47560000D02*
X60960000Y50800000D01*
X7731800Y35229600D02*
X7731800Y38918200D01*
X7731800Y38918200D02*
X6000000Y40650000D01*
X64000000Y52200000D02*
X47120000Y52200000D01*
X47120000Y52200000D02*
X45720000Y50800000D01*
X63000000Y40000000D02*
X64700000Y41700000D01*
X64700000Y51500000D02*
X64000000Y52200000D01*
X64700000Y41700000D02*
X64700000Y51500000D01*
X50800000Y50800000D02*
X50800000Y47800000D01*
X50800000Y47800000D02*
X50000000Y47000000D01*
X52540000Y46000000D02*
X52540000Y50000000D01*
X52540000Y50000000D02*
X53340000Y50800000D01*
X49775000Y42825000D02*
X49825000Y42825000D01*
X49825000Y42825000D02*
X52540000Y45540000D01*
X52540000Y45540000D02*
X52540000Y46000000D01*
X51350000Y28000000D02*
X53000000Y28000000D01*
X58420000Y49580000D02*
X58420000Y50800000D01*
X59000000Y49000000D02*
X58420000Y49580000D01*
X59000000Y40000000D02*
X59000000Y49000000D01*
X49000000Y41900000D02*
X48275000Y41175000D01*
X48275000Y41175000D02*
X48225000Y41175000D01*
X60460000Y45080000D02*
X60460000Y42540000D01*
X60460000Y42540000D02*
X60460000Y40000000D01*
X43350000Y37000000D02*
X43400000Y37000000D01*
X43400000Y37000000D02*
X44400000Y38000000D01*
X44400000Y38000000D02*
X52650000Y38000000D01*
X44000000Y36350000D02*
X44000000Y35650000D01*
X43725000Y34325000D02*
X44000000Y34600000D01*
X44000000Y34600000D02*
X44000000Y35650000D01*
X43725000Y34325000D02*
X42900000Y34325000D01*
X44000000Y36350000D02*
X43350000Y37000000D01*
X33950000Y37000000D02*
X40000000Y37000000D01*
X42025000Y34975000D02*
X42900000Y34975000D01*
X40000000Y37000000D02*
X42025000Y34975000D01*
X42900000Y33675000D02*
X40675000Y33675000D01*
X40675000Y33675000D02*
X40350000Y34000000D01*
X48000000Y32650000D02*
X50000000Y32650000D01*
X45100000Y33675000D02*
X46975000Y33675000D01*
X46975000Y33675000D02*
X48000000Y32650000D01*
X45100000Y34325000D02*
X46975000Y34325000D01*
X46975000Y34325000D02*
X48000000Y35350000D01*
X45100000Y34325000D02*
X44525000Y34325000D01*
X43200000Y32000000D02*
X33950000Y32000000D01*
X44000000Y32800000D02*
X43200000Y32000000D01*
X44000000Y33800000D02*
X44000000Y32800000D01*
X44525000Y34325000D02*
X44000000Y33800000D01*
X45100000Y33025000D02*
X45475000Y33025000D01*
X45475000Y33025000D02*
X48500000Y30000000D01*
D31*
G36*
X58240000Y40562463D02*
X58207808Y40530327D01*
X58065162Y40186799D01*
X58064838Y39814833D01*
X58206883Y39471057D01*
X58469673Y39207808D01*
X58813201Y39065162D01*
X59185167Y39064838D01*
X59265577Y39098063D01*
X59370971Y38940330D01*
X59373000Y38938974D01*
X59373000Y11127000D01*
X34000000Y11127000D01*
X33950590Y11116994D01*
X33908965Y11088553D01*
X33881685Y11046159D01*
X33873000Y11000000D01*
X33873000Y3922508D01*
X33593489Y4109271D01*
X33020000Y4223345D01*
X32446511Y4109271D01*
X31960330Y3784415D01*
X31753539Y3474931D01*
X31382036Y3890732D01*
X30854791Y4144709D01*
X30839026Y4147358D01*
X30607000Y4026217D01*
X30607000Y2667000D01*
X30627000Y2667000D01*
X30627000Y2413000D01*
X30607000Y2413000D01*
X30607000Y2393000D01*
X30353000Y2393000D01*
X30353000Y2413000D01*
X30333000Y2413000D01*
X30333000Y2667000D01*
X30353000Y2667000D01*
X30353000Y4026217D01*
X30120974Y4147358D01*
X30105209Y4144709D01*
X29577964Y3890732D01*
X29206461Y3474931D01*
X29127000Y3593853D01*
X29127000Y12415406D01*
X29248690Y12365000D01*
X29714250Y12365000D01*
X29873000Y12523750D01*
X29873000Y13623000D01*
X30127000Y13623000D01*
X30127000Y12523750D01*
X30285750Y12365000D01*
X30751310Y12365000D01*
X30984699Y12461673D01*
X31163327Y12640302D01*
X31260000Y12873691D01*
X31260000Y13364250D01*
X31715000Y13364250D01*
X31715000Y12773691D01*
X31811673Y12540302D01*
X31990301Y12361673D01*
X32223690Y12265000D01*
X32714250Y12265000D01*
X32873000Y12423750D01*
X32873000Y13523000D01*
X33127000Y13523000D01*
X33127000Y12423750D01*
X33285750Y12265000D01*
X33776310Y12265000D01*
X34009699Y12361673D01*
X34188327Y12540302D01*
X34285000Y12773691D01*
X34285000Y13364250D01*
X34126250Y13523000D01*
X33127000Y13523000D01*
X32873000Y13523000D01*
X31873750Y13523000D01*
X31715000Y13364250D01*
X31260000Y13364250D01*
X31260000Y13464250D01*
X31101250Y13623000D01*
X30127000Y13623000D01*
X29873000Y13623000D01*
X29853000Y13623000D01*
X29853000Y13877000D01*
X29873000Y13877000D01*
X29873000Y13897000D01*
X30127000Y13897000D01*
X30127000Y13877000D01*
X31101250Y13877000D01*
X31260000Y14035750D01*
X31260000Y14626309D01*
X31163327Y14859698D01*
X31022090Y15000936D01*
X31076441Y15035910D01*
X31221431Y15248110D01*
X31272440Y15500000D01*
X31272440Y15873000D01*
X31702560Y15873000D01*
X31702560Y15600000D01*
X31746838Y15364683D01*
X31885910Y15148559D01*
X32098110Y15003569D01*
X32131490Y14996809D01*
X31990301Y14938327D01*
X31811673Y14759698D01*
X31715000Y14526309D01*
X31715000Y13935750D01*
X31873750Y13777000D01*
X32873000Y13777000D01*
X32873000Y13797000D01*
X33127000Y13797000D01*
X33127000Y13777000D01*
X34126250Y13777000D01*
X34285000Y13935750D01*
X34285000Y14526309D01*
X34188327Y14759698D01*
X34009699Y14938327D01*
X33873713Y14994654D01*
X33885317Y14996838D01*
X34101441Y15135910D01*
X34246431Y15348110D01*
X34297440Y15600000D01*
X34297440Y15873000D01*
X56500000Y15873000D01*
X56549410Y15883006D01*
X56591035Y15911447D01*
X56618315Y15953841D01*
X56627000Y16000000D01*
X56627000Y36996494D01*
X56696431Y37098110D01*
X56747440Y37350000D01*
X56747440Y38650000D01*
X56703162Y38885317D01*
X56629380Y38999978D01*
X56696431Y39098110D01*
X56747440Y39350000D01*
X56747440Y40650000D01*
X56703162Y40885317D01*
X56629380Y40999978D01*
X56696431Y41098110D01*
X56747440Y41350000D01*
X56747440Y42650000D01*
X56703162Y42885317D01*
X56640000Y42983474D01*
X56640000Y46873000D01*
X58240000Y46873000D01*
X58240000Y40562463D01*
X58240000Y40562463D01*
G37*
X58240000Y40562463D02*
X58207808Y40530327D01*
X58065162Y40186799D01*
X58064838Y39814833D01*
X58206883Y39471057D01*
X58469673Y39207808D01*
X58813201Y39065162D01*
X59185167Y39064838D01*
X59265577Y39098063D01*
X59370971Y38940330D01*
X59373000Y38938974D01*
X59373000Y11127000D01*
X34000000Y11127000D01*
X33950590Y11116994D01*
X33908965Y11088553D01*
X33881685Y11046159D01*
X33873000Y11000000D01*
X33873000Y3922508D01*
X33593489Y4109271D01*
X33020000Y4223345D01*
X32446511Y4109271D01*
X31960330Y3784415D01*
X31753539Y3474931D01*
X31382036Y3890732D01*
X30854791Y4144709D01*
X30839026Y4147358D01*
X30607000Y4026217D01*
X30607000Y2667000D01*
X30627000Y2667000D01*
X30627000Y2413000D01*
X30607000Y2413000D01*
X30607000Y2393000D01*
X30353000Y2393000D01*
X30353000Y2413000D01*
X30333000Y2413000D01*
X30333000Y2667000D01*
X30353000Y2667000D01*
X30353000Y4026217D01*
X30120974Y4147358D01*
X30105209Y4144709D01*
X29577964Y3890732D01*
X29206461Y3474931D01*
X29127000Y3593853D01*
X29127000Y12415406D01*
X29248690Y12365000D01*
X29714250Y12365000D01*
X29873000Y12523750D01*
X29873000Y13623000D01*
X30127000Y13623000D01*
X30127000Y12523750D01*
X30285750Y12365000D01*
X30751310Y12365000D01*
X30984699Y12461673D01*
X31163327Y12640302D01*
X31260000Y12873691D01*
X31260000Y13364250D01*
X31715000Y13364250D01*
X31715000Y12773691D01*
X31811673Y12540302D01*
X31990301Y12361673D01*
X32223690Y12265000D01*
X32714250Y12265000D01*
X32873000Y12423750D01*
X32873000Y13523000D01*
X33127000Y13523000D01*
X33127000Y12423750D01*
X33285750Y12265000D01*
X33776310Y12265000D01*
X34009699Y12361673D01*
X34188327Y12540302D01*
X34285000Y12773691D01*
X34285000Y13364250D01*
X34126250Y13523000D01*
X33127000Y13523000D01*
X32873000Y13523000D01*
X31873750Y13523000D01*
X31715000Y13364250D01*
X31260000Y13364250D01*
X31260000Y13464250D01*
X31101250Y13623000D01*
X30127000Y13623000D01*
X29873000Y13623000D01*
X29853000Y13623000D01*
X29853000Y13877000D01*
X29873000Y13877000D01*
X29873000Y13897000D01*
X30127000Y13897000D01*
X30127000Y13877000D01*
X31101250Y13877000D01*
X31260000Y14035750D01*
X31260000Y14626309D01*
X31163327Y14859698D01*
X31022090Y15000936D01*
X31076441Y15035910D01*
X31221431Y15248110D01*
X31272440Y15500000D01*
X31272440Y15873000D01*
X31702560Y15873000D01*
X31702560Y15600000D01*
X31746838Y15364683D01*
X31885910Y15148559D01*
X32098110Y15003569D01*
X32131490Y14996809D01*
X31990301Y14938327D01*
X31811673Y14759698D01*
X31715000Y14526309D01*
X31715000Y13935750D01*
X31873750Y13777000D01*
X32873000Y13777000D01*
X32873000Y13797000D01*
X33127000Y13797000D01*
X33127000Y13777000D01*
X34126250Y13777000D01*
X34285000Y13935750D01*
X34285000Y14526309D01*
X34188327Y14759698D01*
X34009699Y14938327D01*
X33873713Y14994654D01*
X33885317Y14996838D01*
X34101441Y15135910D01*
X34246431Y15348110D01*
X34297440Y15600000D01*
X34297440Y15873000D01*
X56500000Y15873000D01*
X56549410Y15883006D01*
X56591035Y15911447D01*
X56618315Y15953841D01*
X56627000Y16000000D01*
X56627000Y36996494D01*
X56696431Y37098110D01*
X56747440Y37350000D01*
X56747440Y38650000D01*
X56703162Y38885317D01*
X56629380Y38999978D01*
X56696431Y39098110D01*
X56747440Y39350000D01*
X56747440Y40650000D01*
X56703162Y40885317D01*
X56629380Y40999978D01*
X56696431Y41098110D01*
X56747440Y41350000D01*
X56747440Y42650000D01*
X56703162Y42885317D01*
X56640000Y42983474D01*
X56640000Y46873000D01*
X58240000Y46873000D01*
X58240000Y40562463D01*
G36*
X23752560Y19872638D02*
X23752560Y17700000D01*
X23796838Y17464683D01*
X23935910Y17248559D01*
X24148110Y17103569D01*
X24400000Y17052560D01*
X27600000Y17052560D01*
X27835317Y17096838D01*
X28051441Y17235910D01*
X28054236Y17240000D01*
X28776161Y17240000D01*
X28753278Y17127000D01*
X28000000Y17127000D01*
X27950590Y17116994D01*
X27908965Y17088553D01*
X27881685Y17046159D01*
X27873000Y17000000D01*
X27873000Y4210018D01*
X27366511Y4109271D01*
X26880330Y3784415D01*
X26555474Y3298234D01*
X26441400Y2724745D01*
X26441400Y2355255D01*
X26555474Y1781766D01*
X26880330Y1295585D01*
X27366511Y970729D01*
X27873000Y869982D01*
X27873000Y710000D01*
X15911807Y710000D01*
X16229655Y1027293D01*
X16636536Y2007173D01*
X16637462Y3068172D01*
X16232291Y4048761D01*
X15482707Y4799655D01*
X14502827Y5206536D01*
X13441828Y5207462D01*
X12461239Y4802291D01*
X11710345Y4052707D01*
X11303464Y3072827D01*
X11302538Y2011828D01*
X11707709Y1031239D01*
X12028388Y710000D01*
X710000Y710000D01*
X710000Y12264250D01*
X15765000Y12264250D01*
X15765000Y11073691D01*
X15861673Y10840302D01*
X16040301Y10661673D01*
X16273690Y10565000D01*
X17714250Y10565000D01*
X17873000Y10723750D01*
X17873000Y12423000D01*
X18127000Y12423000D01*
X18127000Y10723750D01*
X18285750Y10565000D01*
X19726310Y10565000D01*
X19959699Y10661673D01*
X20138327Y10840302D01*
X20235000Y11073691D01*
X20235000Y12264250D01*
X20076250Y12423000D01*
X18127000Y12423000D01*
X17873000Y12423000D01*
X15923750Y12423000D01*
X15765000Y12264250D01*
X710000Y12264250D01*
X710000Y14026309D01*
X15765000Y14026309D01*
X15765000Y12835750D01*
X15923750Y12677000D01*
X17873000Y12677000D01*
X17873000Y14376250D01*
X18127000Y14376250D01*
X18127000Y12677000D01*
X20076250Y12677000D01*
X20235000Y12835750D01*
X20235000Y14026309D01*
X20138327Y14259698D01*
X19959699Y14438327D01*
X19726310Y14535000D01*
X18285750Y14535000D01*
X18127000Y14376250D01*
X17873000Y14376250D01*
X17714250Y14535000D01*
X16273690Y14535000D01*
X16040301Y14438327D01*
X15861673Y14259698D01*
X15765000Y14026309D01*
X710000Y14026309D01*
X710000Y17873000D01*
X22000000Y17873000D01*
X22049410Y17883006D01*
X22091035Y17911447D01*
X22118315Y17953841D01*
X22127000Y18000000D01*
X22127000Y21498198D01*
X23752560Y19872638D01*
X23752560Y19872638D01*
G37*
X23752560Y19872638D02*
X23752560Y17700000D01*
X23796838Y17464683D01*
X23935910Y17248559D01*
X24148110Y17103569D01*
X24400000Y17052560D01*
X27600000Y17052560D01*
X27835317Y17096838D01*
X28051441Y17235910D01*
X28054236Y17240000D01*
X28776161Y17240000D01*
X28753278Y17127000D01*
X28000000Y17127000D01*
X27950590Y17116994D01*
X27908965Y17088553D01*
X27881685Y17046159D01*
X27873000Y17000000D01*
X27873000Y4210018D01*
X27366511Y4109271D01*
X26880330Y3784415D01*
X26555474Y3298234D01*
X26441400Y2724745D01*
X26441400Y2355255D01*
X26555474Y1781766D01*
X26880330Y1295585D01*
X27366511Y970729D01*
X27873000Y869982D01*
X27873000Y710000D01*
X15911807Y710000D01*
X16229655Y1027293D01*
X16636536Y2007173D01*
X16637462Y3068172D01*
X16232291Y4048761D01*
X15482707Y4799655D01*
X14502827Y5206536D01*
X13441828Y5207462D01*
X12461239Y4802291D01*
X11710345Y4052707D01*
X11303464Y3072827D01*
X11302538Y2011828D01*
X11707709Y1031239D01*
X12028388Y710000D01*
X710000Y710000D01*
X710000Y12264250D01*
X15765000Y12264250D01*
X15765000Y11073691D01*
X15861673Y10840302D01*
X16040301Y10661673D01*
X16273690Y10565000D01*
X17714250Y10565000D01*
X17873000Y10723750D01*
X17873000Y12423000D01*
X18127000Y12423000D01*
X18127000Y10723750D01*
X18285750Y10565000D01*
X19726310Y10565000D01*
X19959699Y10661673D01*
X20138327Y10840302D01*
X20235000Y11073691D01*
X20235000Y12264250D01*
X20076250Y12423000D01*
X18127000Y12423000D01*
X17873000Y12423000D01*
X15923750Y12423000D01*
X15765000Y12264250D01*
X710000Y12264250D01*
X710000Y14026309D01*
X15765000Y14026309D01*
X15765000Y12835750D01*
X15923750Y12677000D01*
X17873000Y12677000D01*
X17873000Y14376250D01*
X18127000Y14376250D01*
X18127000Y12677000D01*
X20076250Y12677000D01*
X20235000Y12835750D01*
X20235000Y14026309D01*
X20138327Y14259698D01*
X19959699Y14438327D01*
X19726310Y14535000D01*
X18285750Y14535000D01*
X18127000Y14376250D01*
X17873000Y14376250D01*
X17714250Y14535000D01*
X16273690Y14535000D01*
X16040301Y14438327D01*
X15861673Y14259698D01*
X15765000Y14026309D01*
X710000Y14026309D01*
X710000Y17873000D01*
X22000000Y17873000D01*
X22049410Y17883006D01*
X22091035Y17911447D01*
X22118315Y17953841D01*
X22127000Y18000000D01*
X22127000Y21498198D01*
X23752560Y19872638D01*
G36*
X65330000Y40386000D02*
X65384046Y40114295D01*
X65537954Y39883954D01*
X67870000Y37551909D01*
X67870000Y37501807D01*
X67552707Y37819655D01*
X66572827Y38226536D01*
X65511828Y38227462D01*
X64531239Y37822291D01*
X63780345Y37072707D01*
X63373464Y36092827D01*
X63372538Y35031828D01*
X63777709Y34051239D01*
X64527293Y33300345D01*
X65507173Y32893464D01*
X66568172Y32892538D01*
X67548761Y33297709D01*
X67870000Y33618388D01*
X67870000Y9561807D01*
X67552707Y9879655D01*
X66572827Y10286536D01*
X65511828Y10287462D01*
X64531239Y9882291D01*
X63780345Y9132707D01*
X63373464Y8152827D01*
X63372538Y7091828D01*
X63777709Y6111239D01*
X64527293Y5360345D01*
X65507173Y4953464D01*
X66568172Y4952538D01*
X67548761Y5357709D01*
X67870000Y5678388D01*
X67870000Y5374091D01*
X65537954Y3042046D01*
X65384046Y2811705D01*
X65330000Y2540000D01*
X65330000Y710000D01*
X35127000Y710000D01*
X35127000Y942784D01*
X35560000Y856655D01*
X36133489Y970729D01*
X36619670Y1295585D01*
X36830000Y1610366D01*
X37040330Y1295585D01*
X37526511Y970729D01*
X38100000Y856655D01*
X38673489Y970729D01*
X39159670Y1295585D01*
X39366461Y1605069D01*
X39737964Y1189268D01*
X40265209Y935291D01*
X40280974Y932642D01*
X40513000Y1053783D01*
X40513000Y2413000D01*
X40767000Y2413000D01*
X40767000Y1053783D01*
X40999026Y932642D01*
X41014791Y935291D01*
X41542036Y1189268D01*
X41910000Y1601108D01*
X42277964Y1189268D01*
X42805209Y935291D01*
X42820974Y932642D01*
X43053000Y1053783D01*
X43053000Y2413000D01*
X40767000Y2413000D01*
X40513000Y2413000D01*
X40493000Y2413000D01*
X40493000Y2667000D01*
X40513000Y2667000D01*
X40513000Y4026217D01*
X40767000Y4026217D01*
X40767000Y2667000D01*
X43053000Y2667000D01*
X43053000Y4026217D01*
X43307000Y4026217D01*
X43307000Y2667000D01*
X43327000Y2667000D01*
X43327000Y2413000D01*
X43307000Y2413000D01*
X43307000Y1053783D01*
X43539026Y932642D01*
X43554791Y935291D01*
X44082036Y1189268D01*
X44453539Y1605069D01*
X44660330Y1295585D01*
X45146511Y970729D01*
X45720000Y856655D01*
X46293489Y970729D01*
X46779670Y1295585D01*
X47104526Y1781766D01*
X47218600Y2355255D01*
X47218600Y2724745D01*
X49301400Y2724745D01*
X49301400Y2355255D01*
X49415474Y1781766D01*
X49740330Y1295585D01*
X50226511Y970729D01*
X50800000Y856655D01*
X51373489Y970729D01*
X51859670Y1295585D01*
X52070000Y1610366D01*
X52280330Y1295585D01*
X52766511Y970729D01*
X53340000Y856655D01*
X53913489Y970729D01*
X54399670Y1295585D01*
X54610000Y1610366D01*
X54820330Y1295585D01*
X55306511Y970729D01*
X55880000Y856655D01*
X56453489Y970729D01*
X56939670Y1295585D01*
X57150000Y1610366D01*
X57360330Y1295585D01*
X57846511Y970729D01*
X58420000Y856655D01*
X58993489Y970729D01*
X59479670Y1295585D01*
X59690000Y1610366D01*
X59900330Y1295585D01*
X60386511Y970729D01*
X60960000Y856655D01*
X61533489Y970729D01*
X62019670Y1295585D01*
X62230000Y1610366D01*
X62440330Y1295585D01*
X62926511Y970729D01*
X63500000Y856655D01*
X64073489Y970729D01*
X64559670Y1295585D01*
X64884526Y1781766D01*
X64998600Y2355255D01*
X64998600Y2724745D01*
X64884526Y3298234D01*
X64559670Y3784415D01*
X64073489Y4109271D01*
X63500000Y4223345D01*
X62926511Y4109271D01*
X62440330Y3784415D01*
X62230000Y3469634D01*
X62019670Y3784415D01*
X61533489Y4109271D01*
X60960000Y4223345D01*
X60386511Y4109271D01*
X59900330Y3784415D01*
X59690000Y3469634D01*
X59479670Y3784415D01*
X58993489Y4109271D01*
X58420000Y4223345D01*
X57846511Y4109271D01*
X57360330Y3784415D01*
X57150000Y3469634D01*
X56939670Y3784415D01*
X56453489Y4109271D01*
X55880000Y4223345D01*
X55306511Y4109271D01*
X54820330Y3784415D01*
X54610000Y3469634D01*
X54399670Y3784415D01*
X53913489Y4109271D01*
X53340000Y4223345D01*
X52766511Y4109271D01*
X52280330Y3784415D01*
X52070000Y3469634D01*
X51859670Y3784415D01*
X51373489Y4109271D01*
X50800000Y4223345D01*
X50226511Y4109271D01*
X49740330Y3784415D01*
X49415474Y3298234D01*
X49301400Y2724745D01*
X47218600Y2724745D01*
X47104526Y3298234D01*
X46779670Y3784415D01*
X46293489Y4109271D01*
X45720000Y4223345D01*
X45146511Y4109271D01*
X44660330Y3784415D01*
X44453539Y3474931D01*
X44082036Y3890732D01*
X43554791Y4144709D01*
X43539026Y4147358D01*
X43307000Y4026217D01*
X43053000Y4026217D01*
X42820974Y4147358D01*
X42805209Y4144709D01*
X42277964Y3890732D01*
X41910000Y3478892D01*
X41542036Y3890732D01*
X41014791Y4144709D01*
X40999026Y4147358D01*
X40767000Y4026217D01*
X40513000Y4026217D01*
X40280974Y4147358D01*
X40265209Y4144709D01*
X39737964Y3890732D01*
X39366461Y3474931D01*
X39159670Y3784415D01*
X38673489Y4109271D01*
X38100000Y4223345D01*
X37526511Y4109271D01*
X37040330Y3784415D01*
X36830000Y3469634D01*
X36619670Y3784415D01*
X36133489Y4109271D01*
X35560000Y4223345D01*
X35127000Y4137216D01*
X35127000Y9873000D01*
X60500000Y9873000D01*
X60549410Y9883006D01*
X60591035Y9911447D01*
X60618315Y9953841D01*
X60627000Y10000000D01*
X60627000Y38528778D01*
X61062848Y38615474D01*
X61528442Y38926574D01*
X61533238Y38901083D01*
X61672310Y38684959D01*
X61884510Y38539969D01*
X62136400Y38488960D01*
X63863600Y38488960D01*
X64098917Y38533238D01*
X64315041Y38672310D01*
X64460031Y38884510D01*
X64511040Y39136400D01*
X64511040Y40436238D01*
X65237401Y41162599D01*
X65330000Y41301184D01*
X65330000Y40386000D01*
X65330000Y40386000D01*
G37*
X65330000Y40386000D02*
X65384046Y40114295D01*
X65537954Y39883954D01*
X67870000Y37551909D01*
X67870000Y37501807D01*
X67552707Y37819655D01*
X66572827Y38226536D01*
X65511828Y38227462D01*
X64531239Y37822291D01*
X63780345Y37072707D01*
X63373464Y36092827D01*
X63372538Y35031828D01*
X63777709Y34051239D01*
X64527293Y33300345D01*
X65507173Y32893464D01*
X66568172Y32892538D01*
X67548761Y33297709D01*
X67870000Y33618388D01*
X67870000Y9561807D01*
X67552707Y9879655D01*
X66572827Y10286536D01*
X65511828Y10287462D01*
X64531239Y9882291D01*
X63780345Y9132707D01*
X63373464Y8152827D01*
X63372538Y7091828D01*
X63777709Y6111239D01*
X64527293Y5360345D01*
X65507173Y4953464D01*
X66568172Y4952538D01*
X67548761Y5357709D01*
X67870000Y5678388D01*
X67870000Y5374091D01*
X65537954Y3042046D01*
X65384046Y2811705D01*
X65330000Y2540000D01*
X65330000Y710000D01*
X35127000Y710000D01*
X35127000Y942784D01*
X35560000Y856655D01*
X36133489Y970729D01*
X36619670Y1295585D01*
X36830000Y1610366D01*
X37040330Y1295585D01*
X37526511Y970729D01*
X38100000Y856655D01*
X38673489Y970729D01*
X39159670Y1295585D01*
X39366461Y1605069D01*
X39737964Y1189268D01*
X40265209Y935291D01*
X40280974Y932642D01*
X40513000Y1053783D01*
X40513000Y2413000D01*
X40767000Y2413000D01*
X40767000Y1053783D01*
X40999026Y932642D01*
X41014791Y935291D01*
X41542036Y1189268D01*
X41910000Y1601108D01*
X42277964Y1189268D01*
X42805209Y935291D01*
X42820974Y932642D01*
X43053000Y1053783D01*
X43053000Y2413000D01*
X40767000Y2413000D01*
X40513000Y2413000D01*
X40493000Y2413000D01*
X40493000Y2667000D01*
X40513000Y2667000D01*
X40513000Y4026217D01*
X40767000Y4026217D01*
X40767000Y2667000D01*
X43053000Y2667000D01*
X43053000Y4026217D01*
X43307000Y4026217D01*
X43307000Y2667000D01*
X43327000Y2667000D01*
X43327000Y2413000D01*
X43307000Y2413000D01*
X43307000Y1053783D01*
X43539026Y932642D01*
X43554791Y935291D01*
X44082036Y1189268D01*
X44453539Y1605069D01*
X44660330Y1295585D01*
X45146511Y970729D01*
X45720000Y856655D01*
X46293489Y970729D01*
X46779670Y1295585D01*
X47104526Y1781766D01*
X47218600Y2355255D01*
X47218600Y2724745D01*
X49301400Y2724745D01*
X49301400Y2355255D01*
X49415474Y1781766D01*
X49740330Y1295585D01*
X50226511Y970729D01*
X50800000Y856655D01*
X51373489Y970729D01*
X51859670Y1295585D01*
X52070000Y1610366D01*
X52280330Y1295585D01*
X52766511Y970729D01*
X53340000Y856655D01*
X53913489Y970729D01*
X54399670Y1295585D01*
X54610000Y1610366D01*
X54820330Y1295585D01*
X55306511Y970729D01*
X55880000Y856655D01*
X56453489Y970729D01*
X56939670Y1295585D01*
X57150000Y1610366D01*
X57360330Y1295585D01*
X57846511Y970729D01*
X58420000Y856655D01*
X58993489Y970729D01*
X59479670Y1295585D01*
X59690000Y1610366D01*
X59900330Y1295585D01*
X60386511Y970729D01*
X60960000Y856655D01*
X61533489Y970729D01*
X62019670Y1295585D01*
X62230000Y1610366D01*
X62440330Y1295585D01*
X62926511Y970729D01*
X63500000Y856655D01*
X64073489Y970729D01*
X64559670Y1295585D01*
X64884526Y1781766D01*
X64998600Y2355255D01*
X64998600Y2724745D01*
X64884526Y3298234D01*
X64559670Y3784415D01*
X64073489Y4109271D01*
X63500000Y4223345D01*
X62926511Y4109271D01*
X62440330Y3784415D01*
X62230000Y3469634D01*
X62019670Y3784415D01*
X61533489Y4109271D01*
X60960000Y4223345D01*
X60386511Y4109271D01*
X59900330Y3784415D01*
X59690000Y3469634D01*
X59479670Y3784415D01*
X58993489Y4109271D01*
X58420000Y4223345D01*
X57846511Y4109271D01*
X57360330Y3784415D01*
X57150000Y3469634D01*
X56939670Y3784415D01*
X56453489Y4109271D01*
X55880000Y4223345D01*
X55306511Y4109271D01*
X54820330Y3784415D01*
X54610000Y3469634D01*
X54399670Y3784415D01*
X53913489Y4109271D01*
X53340000Y4223345D01*
X52766511Y4109271D01*
X52280330Y3784415D01*
X52070000Y3469634D01*
X51859670Y3784415D01*
X51373489Y4109271D01*
X50800000Y4223345D01*
X50226511Y4109271D01*
X49740330Y3784415D01*
X49415474Y3298234D01*
X49301400Y2724745D01*
X47218600Y2724745D01*
X47104526Y3298234D01*
X46779670Y3784415D01*
X46293489Y4109271D01*
X45720000Y4223345D01*
X45146511Y4109271D01*
X44660330Y3784415D01*
X44453539Y3474931D01*
X44082036Y3890732D01*
X43554791Y4144709D01*
X43539026Y4147358D01*
X43307000Y4026217D01*
X43053000Y4026217D01*
X42820974Y4147358D01*
X42805209Y4144709D01*
X42277964Y3890732D01*
X41910000Y3478892D01*
X41542036Y3890732D01*
X41014791Y4144709D01*
X40999026Y4147358D01*
X40767000Y4026217D01*
X40513000Y4026217D01*
X40280974Y4147358D01*
X40265209Y4144709D01*
X39737964Y3890732D01*
X39366461Y3474931D01*
X39159670Y3784415D01*
X38673489Y4109271D01*
X38100000Y4223345D01*
X37526511Y4109271D01*
X37040330Y3784415D01*
X36830000Y3469634D01*
X36619670Y3784415D01*
X36133489Y4109271D01*
X35560000Y4223345D01*
X35127000Y4137216D01*
X35127000Y9873000D01*
X60500000Y9873000D01*
X60549410Y9883006D01*
X60591035Y9911447D01*
X60618315Y9953841D01*
X60627000Y10000000D01*
X60627000Y38528778D01*
X61062848Y38615474D01*
X61528442Y38926574D01*
X61533238Y38901083D01*
X61672310Y38684959D01*
X61884510Y38539969D01*
X62136400Y38488960D01*
X63863600Y38488960D01*
X64098917Y38533238D01*
X64315041Y38672310D01*
X64460031Y38884510D01*
X64511040Y39136400D01*
X64511040Y40436238D01*
X65237401Y41162599D01*
X65330000Y41301184D01*
X65330000Y40386000D01*
G36*
X55373000Y17127000D02*
X34292360Y17127000D01*
X34253162Y17335317D01*
X34114090Y17551441D01*
X33901890Y17696431D01*
X33760000Y17725164D01*
X33760000Y18273258D01*
X33885317Y18296838D01*
X34101441Y18435910D01*
X34246431Y18648110D01*
X34297440Y18900000D01*
X34297440Y20400000D01*
X34253162Y20635317D01*
X34114090Y20851441D01*
X33901890Y20996431D01*
X33868510Y21003191D01*
X34009699Y21061673D01*
X34188327Y21240302D01*
X34285000Y21473691D01*
X34285000Y22064250D01*
X34126250Y22223000D01*
X33127000Y22223000D01*
X33127000Y22203000D01*
X32873000Y22203000D01*
X32873000Y22223000D01*
X31873750Y22223000D01*
X31715000Y22064250D01*
X31715000Y21473691D01*
X31811673Y21240302D01*
X31990301Y21061673D01*
X32126287Y21005346D01*
X32114683Y21003162D01*
X31898559Y20864090D01*
X31753569Y20651890D01*
X31702560Y20400000D01*
X31702560Y18900000D01*
X31728903Y18760000D01*
X31223839Y18760000D01*
X31272440Y19000000D01*
X31272440Y20500000D01*
X31228162Y20735317D01*
X31089090Y20951441D01*
X31020994Y20997969D01*
X31163327Y21140302D01*
X31260000Y21373691D01*
X31260000Y21964250D01*
X31101250Y22123000D01*
X30127000Y22123000D01*
X30127000Y22103000D01*
X29873000Y22103000D01*
X29873000Y22123000D01*
X28898750Y22123000D01*
X28740000Y21964250D01*
X28740000Y21373691D01*
X28836673Y21140302D01*
X28977910Y20999064D01*
X28923559Y20964090D01*
X28778569Y20751890D01*
X28727560Y20500000D01*
X28727560Y19000000D01*
X28771838Y18764683D01*
X28774851Y18760000D01*
X28247440Y18760000D01*
X28247440Y20400000D01*
X28203162Y20635317D01*
X28064090Y20851441D01*
X27851890Y20996431D01*
X27600000Y21047440D01*
X24727362Y21047440D01*
X23260000Y22514802D01*
X23260000Y23126309D01*
X28740000Y23126309D01*
X28740000Y22535750D01*
X28898750Y22377000D01*
X29873000Y22377000D01*
X29873000Y23476250D01*
X30127000Y23476250D01*
X30127000Y22377000D01*
X31101250Y22377000D01*
X31260000Y22535750D01*
X31260000Y23126309D01*
X31218579Y23226309D01*
X31715000Y23226309D01*
X31715000Y22635750D01*
X31873750Y22477000D01*
X32873000Y22477000D01*
X32873000Y23576250D01*
X33127000Y23576250D01*
X33127000Y22477000D01*
X34126250Y22477000D01*
X34285000Y22635750D01*
X34285000Y23226309D01*
X34188327Y23459698D01*
X34009699Y23638327D01*
X33776310Y23735000D01*
X33285750Y23735000D01*
X33127000Y23576250D01*
X32873000Y23576250D01*
X32714250Y23735000D01*
X32223690Y23735000D01*
X31990301Y23638327D01*
X31811673Y23459698D01*
X31715000Y23226309D01*
X31218579Y23226309D01*
X31163327Y23359698D01*
X30984699Y23538327D01*
X30751310Y23635000D01*
X30285750Y23635000D01*
X30127000Y23476250D01*
X29873000Y23476250D01*
X29714250Y23635000D01*
X29248690Y23635000D01*
X29015301Y23538327D01*
X28836673Y23359698D01*
X28740000Y23126309D01*
X23260000Y23126309D01*
X23260000Y26100000D01*
X23202148Y26390839D01*
X23037401Y26637401D01*
X22127000Y27547802D01*
X22127000Y28298198D01*
X22962599Y27462599D01*
X23209160Y27297852D01*
X23257414Y27288254D01*
X23500000Y27240000D01*
X23752560Y27240000D01*
X23752560Y25600000D01*
X23796838Y25364683D01*
X23935910Y25148559D01*
X24148110Y25003569D01*
X24400000Y24952560D01*
X27600000Y24952560D01*
X27835317Y24996838D01*
X28051441Y25135910D01*
X28196431Y25348110D01*
X28247440Y25600000D01*
X28247440Y27190000D01*
X47282666Y27190000D01*
X47296838Y27114683D01*
X47435910Y26898559D01*
X47648110Y26753569D01*
X47900000Y26702560D01*
X49400000Y26702560D01*
X49635317Y26746838D01*
X49851441Y26885910D01*
X49996431Y27098110D01*
X49999081Y27111197D01*
X50135910Y26898559D01*
X50348110Y26753569D01*
X50600000Y26702560D01*
X52100000Y26702560D01*
X52335317Y26746838D01*
X52551441Y26885910D01*
X52696431Y27098110D01*
X52699334Y27112444D01*
X52813201Y27065162D01*
X53185167Y27064838D01*
X53528943Y27206883D01*
X53792192Y27469673D01*
X53934838Y27813201D01*
X53935162Y28185167D01*
X53793117Y28528943D01*
X53530327Y28792192D01*
X53186799Y28934838D01*
X52814833Y28935162D01*
X52701279Y28888243D01*
X52629380Y28999978D01*
X52696431Y29098110D01*
X52747440Y29350000D01*
X52747440Y30172638D01*
X55373000Y32798198D01*
X55373000Y17127000D01*
X55373000Y17127000D01*
G37*
X55373000Y17127000D02*
X34292360Y17127000D01*
X34253162Y17335317D01*
X34114090Y17551441D01*
X33901890Y17696431D01*
X33760000Y17725164D01*
X33760000Y18273258D01*
X33885317Y18296838D01*
X34101441Y18435910D01*
X34246431Y18648110D01*
X34297440Y18900000D01*
X34297440Y20400000D01*
X34253162Y20635317D01*
X34114090Y20851441D01*
X33901890Y20996431D01*
X33868510Y21003191D01*
X34009699Y21061673D01*
X34188327Y21240302D01*
X34285000Y21473691D01*
X34285000Y22064250D01*
X34126250Y22223000D01*
X33127000Y22223000D01*
X33127000Y22203000D01*
X32873000Y22203000D01*
X32873000Y22223000D01*
X31873750Y22223000D01*
X31715000Y22064250D01*
X31715000Y21473691D01*
X31811673Y21240302D01*
X31990301Y21061673D01*
X32126287Y21005346D01*
X32114683Y21003162D01*
X31898559Y20864090D01*
X31753569Y20651890D01*
X31702560Y20400000D01*
X31702560Y18900000D01*
X31728903Y18760000D01*
X31223839Y18760000D01*
X31272440Y19000000D01*
X31272440Y20500000D01*
X31228162Y20735317D01*
X31089090Y20951441D01*
X31020994Y20997969D01*
X31163327Y21140302D01*
X31260000Y21373691D01*
X31260000Y21964250D01*
X31101250Y22123000D01*
X30127000Y22123000D01*
X30127000Y22103000D01*
X29873000Y22103000D01*
X29873000Y22123000D01*
X28898750Y22123000D01*
X28740000Y21964250D01*
X28740000Y21373691D01*
X28836673Y21140302D01*
X28977910Y20999064D01*
X28923559Y20964090D01*
X28778569Y20751890D01*
X28727560Y20500000D01*
X28727560Y19000000D01*
X28771838Y18764683D01*
X28774851Y18760000D01*
X28247440Y18760000D01*
X28247440Y20400000D01*
X28203162Y20635317D01*
X28064090Y20851441D01*
X27851890Y20996431D01*
X27600000Y21047440D01*
X24727362Y21047440D01*
X23260000Y22514802D01*
X23260000Y23126309D01*
X28740000Y23126309D01*
X28740000Y22535750D01*
X28898750Y22377000D01*
X29873000Y22377000D01*
X29873000Y23476250D01*
X30127000Y23476250D01*
X30127000Y22377000D01*
X31101250Y22377000D01*
X31260000Y22535750D01*
X31260000Y23126309D01*
X31218579Y23226309D01*
X31715000Y23226309D01*
X31715000Y22635750D01*
X31873750Y22477000D01*
X32873000Y22477000D01*
X32873000Y23576250D01*
X33127000Y23576250D01*
X33127000Y22477000D01*
X34126250Y22477000D01*
X34285000Y22635750D01*
X34285000Y23226309D01*
X34188327Y23459698D01*
X34009699Y23638327D01*
X33776310Y23735000D01*
X33285750Y23735000D01*
X33127000Y23576250D01*
X32873000Y23576250D01*
X32714250Y23735000D01*
X32223690Y23735000D01*
X31990301Y23638327D01*
X31811673Y23459698D01*
X31715000Y23226309D01*
X31218579Y23226309D01*
X31163327Y23359698D01*
X30984699Y23538327D01*
X30751310Y23635000D01*
X30285750Y23635000D01*
X30127000Y23476250D01*
X29873000Y23476250D01*
X29714250Y23635000D01*
X29248690Y23635000D01*
X29015301Y23538327D01*
X28836673Y23359698D01*
X28740000Y23126309D01*
X23260000Y23126309D01*
X23260000Y26100000D01*
X23202148Y26390839D01*
X23037401Y26637401D01*
X22127000Y27547802D01*
X22127000Y28298198D01*
X22962599Y27462599D01*
X23209160Y27297852D01*
X23257414Y27288254D01*
X23500000Y27240000D01*
X23752560Y27240000D01*
X23752560Y25600000D01*
X23796838Y25364683D01*
X23935910Y25148559D01*
X24148110Y25003569D01*
X24400000Y24952560D01*
X27600000Y24952560D01*
X27835317Y24996838D01*
X28051441Y25135910D01*
X28196431Y25348110D01*
X28247440Y25600000D01*
X28247440Y27190000D01*
X47282666Y27190000D01*
X47296838Y27114683D01*
X47435910Y26898559D01*
X47648110Y26753569D01*
X47900000Y26702560D01*
X49400000Y26702560D01*
X49635317Y26746838D01*
X49851441Y26885910D01*
X49996431Y27098110D01*
X49999081Y27111197D01*
X50135910Y26898559D01*
X50348110Y26753569D01*
X50600000Y26702560D01*
X52100000Y26702560D01*
X52335317Y26746838D01*
X52551441Y26885910D01*
X52696431Y27098110D01*
X52699334Y27112444D01*
X52813201Y27065162D01*
X53185167Y27064838D01*
X53528943Y27206883D01*
X53792192Y27469673D01*
X53934838Y27813201D01*
X53935162Y28185167D01*
X53793117Y28528943D01*
X53530327Y28792192D01*
X53186799Y28934838D01*
X52814833Y28935162D01*
X52701279Y28888243D01*
X52629380Y28999978D01*
X52696431Y29098110D01*
X52747440Y29350000D01*
X52747440Y30172638D01*
X55373000Y32798198D01*
X55373000Y17127000D01*
G36*
X12980345Y52312707D02*
X12573464Y51332827D01*
X12572538Y50271828D01*
X12977709Y49291239D01*
X13727293Y48540345D01*
X14707173Y48133464D01*
X15768172Y48132538D01*
X16748761Y48537709D01*
X17499655Y49287293D01*
X17659071Y49671211D01*
X17736330Y49555585D01*
X18222511Y49230729D01*
X18796000Y49116655D01*
X19369489Y49230729D01*
X19855670Y49555585D01*
X20066000Y49870366D01*
X20276330Y49555585D01*
X20762511Y49230729D01*
X21336000Y49116655D01*
X21909489Y49230729D01*
X22395670Y49555585D01*
X22606000Y49870366D01*
X22816330Y49555585D01*
X23302511Y49230729D01*
X23876000Y49116655D01*
X24449489Y49230729D01*
X24935670Y49555585D01*
X25142461Y49865069D01*
X25513964Y49449268D01*
X26041209Y49195291D01*
X26056974Y49192642D01*
X26289000Y49313783D01*
X26289000Y50673000D01*
X26269000Y50673000D01*
X26269000Y50927000D01*
X26289000Y50927000D01*
X26289000Y52286217D01*
X26543000Y52286217D01*
X26543000Y50927000D01*
X26563000Y50927000D01*
X26563000Y50673000D01*
X26543000Y50673000D01*
X26543000Y49313783D01*
X26775026Y49192642D01*
X26790791Y49195291D01*
X27318036Y49449268D01*
X27689539Y49865069D01*
X27896330Y49555585D01*
X28382511Y49230729D01*
X28956000Y49116655D01*
X29529489Y49230729D01*
X30015670Y49555585D01*
X30226000Y49870366D01*
X30436330Y49555585D01*
X30922511Y49230729D01*
X31496000Y49116655D01*
X32069489Y49230729D01*
X32555670Y49555585D01*
X32766000Y49870366D01*
X32976330Y49555585D01*
X33462511Y49230729D01*
X34036000Y49116655D01*
X34609489Y49230729D01*
X35095670Y49555585D01*
X35306000Y49870366D01*
X35516330Y49555585D01*
X36002511Y49230729D01*
X36576000Y49116655D01*
X37149489Y49230729D01*
X37635670Y49555585D01*
X37846000Y49870366D01*
X38056330Y49555585D01*
X38542511Y49230729D01*
X39116000Y49116655D01*
X39689489Y49230729D01*
X40175670Y49555585D01*
X40386000Y49870366D01*
X40596330Y49555585D01*
X41082511Y49230729D01*
X41656000Y49116655D01*
X42229489Y49230729D01*
X42715670Y49555585D01*
X43040526Y50041766D01*
X43154600Y50615255D01*
X43154600Y50984745D01*
X43040526Y51558234D01*
X42715670Y52044415D01*
X42229489Y52369271D01*
X41656000Y52483345D01*
X41082511Y52369271D01*
X40596330Y52044415D01*
X40386000Y51729634D01*
X40175670Y52044415D01*
X39689489Y52369271D01*
X39116000Y52483345D01*
X38542511Y52369271D01*
X38056330Y52044415D01*
X37846000Y51729634D01*
X37635670Y52044415D01*
X37149489Y52369271D01*
X36576000Y52483345D01*
X36002511Y52369271D01*
X35516330Y52044415D01*
X35306000Y51729634D01*
X35095670Y52044415D01*
X34609489Y52369271D01*
X34036000Y52483345D01*
X33462511Y52369271D01*
X32976330Y52044415D01*
X32766000Y51729634D01*
X32555670Y52044415D01*
X32069489Y52369271D01*
X31496000Y52483345D01*
X30922511Y52369271D01*
X30436330Y52044415D01*
X30226000Y51729634D01*
X30015670Y52044415D01*
X29529489Y52369271D01*
X28956000Y52483345D01*
X28382511Y52369271D01*
X27896330Y52044415D01*
X27689539Y51734931D01*
X27318036Y52150732D01*
X26790791Y52404709D01*
X26775026Y52407358D01*
X26543000Y52286217D01*
X26289000Y52286217D01*
X26056974Y52407358D01*
X26041209Y52404709D01*
X25513964Y52150732D01*
X25142461Y51734931D01*
X24935670Y52044415D01*
X24449489Y52369271D01*
X23876000Y52483345D01*
X23302511Y52369271D01*
X22816330Y52044415D01*
X22606000Y51729634D01*
X22395670Y52044415D01*
X21909489Y52369271D01*
X21336000Y52483345D01*
X20762511Y52369271D01*
X20276330Y52044415D01*
X20066000Y51729634D01*
X19855670Y52044415D01*
X19369489Y52369271D01*
X18796000Y52483345D01*
X18222511Y52369271D01*
X17736330Y52044415D01*
X17659208Y51928993D01*
X17502291Y52308761D01*
X17181612Y52630000D01*
X46475198Y52630000D01*
X46227579Y52382381D01*
X45720000Y52483345D01*
X45146511Y52369271D01*
X44660330Y52044415D01*
X44335474Y51558234D01*
X44221400Y50984745D01*
X44221400Y50615255D01*
X44335474Y50041766D01*
X44660330Y49555585D01*
X45146511Y49230729D01*
X45720000Y49116655D01*
X46293489Y49230729D01*
X46779670Y49555585D01*
X46990000Y49870366D01*
X47200330Y49555585D01*
X47686511Y49230729D01*
X48260000Y49116655D01*
X48833489Y49230729D01*
X49319670Y49555585D01*
X49530000Y49870366D01*
X49740330Y49555585D01*
X50040000Y49355352D01*
X50040000Y48663440D01*
X48984000Y48663440D01*
X48748683Y48619162D01*
X48532559Y48480090D01*
X48387569Y48267890D01*
X48336560Y48016000D01*
X48336560Y45984000D01*
X48380838Y45748683D01*
X48519910Y45532559D01*
X48732110Y45387569D01*
X48984000Y45336560D01*
X51016000Y45336560D01*
X51251317Y45380838D01*
X51404799Y45479601D01*
X50069436Y44144238D01*
X49993117Y44328943D01*
X49730327Y44592192D01*
X49386799Y44734838D01*
X49014833Y44735162D01*
X48671057Y44593117D01*
X48407808Y44330327D01*
X48265162Y43986799D01*
X48265121Y43939923D01*
X48122638Y43797440D01*
X47800000Y43797440D01*
X47621319Y43763819D01*
X47603162Y43860317D01*
X47464090Y44076441D01*
X47251890Y44221431D01*
X47000000Y44272440D01*
X45500000Y44272440D01*
X45264683Y44228162D01*
X45048559Y44089090D01*
X45002031Y44020994D01*
X44859698Y44163327D01*
X44626309Y44260000D01*
X44035750Y44260000D01*
X43877000Y44101250D01*
X43877000Y43127000D01*
X43897000Y43127000D01*
X43897000Y42873000D01*
X43877000Y42873000D01*
X43877000Y41898750D01*
X44035750Y41740000D01*
X44626309Y41740000D01*
X44859698Y41836673D01*
X45000936Y41977910D01*
X45035910Y41923559D01*
X45248110Y41778569D01*
X45500000Y41727560D01*
X47000000Y41727560D01*
X47214526Y41767926D01*
X47203569Y41751890D01*
X47152560Y41500000D01*
X47152560Y40850000D01*
X47196838Y40614683D01*
X47335910Y40398559D01*
X47548110Y40253569D01*
X47800000Y40202560D01*
X48650000Y40202560D01*
X48885317Y40246838D01*
X48988646Y40313328D01*
X48990301Y40311673D01*
X49223690Y40215000D01*
X49489250Y40215000D01*
X49648000Y40373750D01*
X49648000Y41048000D01*
X49902000Y41048000D01*
X49902000Y40373750D01*
X50060750Y40215000D01*
X50326310Y40215000D01*
X50559699Y40311673D01*
X50738327Y40490302D01*
X50835000Y40723691D01*
X50835000Y40889250D01*
X50676250Y41048000D01*
X49902000Y41048000D01*
X49648000Y41048000D01*
X49628000Y41048000D01*
X49628000Y41205767D01*
X49744436Y41322000D01*
X49902000Y41322000D01*
X49902000Y41302000D01*
X50676250Y41302000D01*
X50835000Y41460750D01*
X50835000Y41626309D01*
X50738327Y41859698D01*
X50597090Y42000936D01*
X50651441Y42035910D01*
X50796431Y42248110D01*
X50847440Y42500000D01*
X50847440Y42772638D01*
X50851112Y42776310D01*
X51265000Y42776310D01*
X51265000Y42285750D01*
X51423750Y42127000D01*
X52523000Y42127000D01*
X52523000Y43126250D01*
X52364250Y43285000D01*
X51773691Y43285000D01*
X51540302Y43188327D01*
X51361673Y43009699D01*
X51265000Y42776310D01*
X50851112Y42776310D01*
X53077401Y45002599D01*
X53242148Y45249161D01*
X53297243Y45526142D01*
X53707433Y45800222D01*
X54065325Y46335845D01*
X54191000Y46967655D01*
X54191000Y47032345D01*
X54065325Y47664155D01*
X53707433Y48199778D01*
X53300000Y48472016D01*
X53300000Y49124611D01*
X53340000Y49116655D01*
X53913489Y49230729D01*
X54399670Y49555585D01*
X54610000Y49870366D01*
X54820330Y49555585D01*
X55120000Y49355352D01*
X55120000Y43297440D01*
X54803722Y43297440D01*
X54934838Y43613201D01*
X54935162Y43985167D01*
X54793117Y44328943D01*
X54530327Y44592192D01*
X54186799Y44734838D01*
X53814833Y44735162D01*
X53471057Y44593117D01*
X53207808Y44330327D01*
X53065162Y43986799D01*
X53064838Y43614833D01*
X53201122Y43285000D01*
X52935750Y43285000D01*
X52777000Y43126250D01*
X52777000Y42127000D01*
X52797000Y42127000D01*
X52797000Y41873000D01*
X52777000Y41873000D01*
X52777000Y41853000D01*
X52523000Y41853000D01*
X52523000Y41873000D01*
X51423750Y41873000D01*
X51265000Y41714250D01*
X51265000Y41223690D01*
X51361673Y40990301D01*
X51363042Y40988932D01*
X51303569Y40901890D01*
X51252560Y40650000D01*
X51252560Y39350000D01*
X51296838Y39114683D01*
X51370620Y39000022D01*
X51303569Y38901890D01*
X51274836Y38760000D01*
X47260000Y38760000D01*
X47260000Y38964250D01*
X47101250Y39123000D01*
X46127000Y39123000D01*
X46127000Y39103000D01*
X45873000Y39103000D01*
X45873000Y39123000D01*
X44898750Y39123000D01*
X44740000Y38964250D01*
X44740000Y38760000D01*
X44400000Y38760000D01*
X44109161Y38702148D01*
X43862599Y38537401D01*
X43622638Y38297440D01*
X42600000Y38297440D01*
X42364683Y38253162D01*
X42148559Y38114090D01*
X42003569Y37901890D01*
X42000919Y37888803D01*
X41864090Y38101441D01*
X41651890Y38246431D01*
X41400000Y38297440D01*
X39900000Y38297440D01*
X39664683Y38253162D01*
X39448559Y38114090D01*
X39303569Y37901890D01*
X39274836Y37760000D01*
X35947440Y37760000D01*
X35947440Y38600000D01*
X35903162Y38835317D01*
X35764090Y39051441D01*
X35551890Y39196431D01*
X35300000Y39247440D01*
X32600000Y39247440D01*
X32364683Y39203162D01*
X32148559Y39064090D01*
X32003569Y38851890D01*
X31952560Y38600000D01*
X31952560Y35400000D01*
X31996838Y35164683D01*
X32135910Y34948559D01*
X32348110Y34803569D01*
X32600000Y34752560D01*
X35300000Y34752560D01*
X35426220Y34776310D01*
X36265000Y34776310D01*
X36265000Y34285750D01*
X36423750Y34127000D01*
X37523000Y34127000D01*
X37523000Y35126250D01*
X37364250Y35285000D01*
X36773691Y35285000D01*
X36540302Y35188327D01*
X36361673Y35009699D01*
X36265000Y34776310D01*
X35426220Y34776310D01*
X35535317Y34796838D01*
X35751441Y34935910D01*
X35896431Y35148110D01*
X35947440Y35400000D01*
X35947440Y36240000D01*
X39273258Y36240000D01*
X39296838Y36114683D01*
X39435910Y35898559D01*
X39648110Y35753569D01*
X39900000Y35702560D01*
X40222638Y35702560D01*
X40627758Y35297440D01*
X39600000Y35297440D01*
X39364683Y35253162D01*
X39148559Y35114090D01*
X39003569Y34901890D01*
X38996809Y34868510D01*
X38938327Y35009699D01*
X38759698Y35188327D01*
X38526309Y35285000D01*
X37935750Y35285000D01*
X37777000Y35126250D01*
X37777000Y34127000D01*
X37797000Y34127000D01*
X37797000Y33873000D01*
X37777000Y33873000D01*
X37777000Y33853000D01*
X37523000Y33853000D01*
X37523000Y33873000D01*
X36423750Y33873000D01*
X36265000Y33714250D01*
X36265000Y33223690D01*
X36361673Y32990301D01*
X36540302Y32811673D01*
X36665052Y32760000D01*
X35947440Y32760000D01*
X35947440Y33600000D01*
X35903162Y33835317D01*
X35764090Y34051441D01*
X35551890Y34196431D01*
X35300000Y34247440D01*
X32600000Y34247440D01*
X32364683Y34203162D01*
X32148559Y34064090D01*
X32003569Y33851890D01*
X31952560Y33600000D01*
X31952560Y30400000D01*
X31996838Y30164683D01*
X32135910Y29948559D01*
X32348110Y29803569D01*
X32600000Y29752560D01*
X35300000Y29752560D01*
X35535317Y29796838D01*
X35751441Y29935910D01*
X35896431Y30148110D01*
X35947440Y30400000D01*
X35947440Y31240000D01*
X43200000Y31240000D01*
X43490839Y31297852D01*
X43737401Y31462599D01*
X44480489Y32205687D01*
X44570000Y32187560D01*
X45237638Y32187560D01*
X47252560Y30172638D01*
X47252560Y29350000D01*
X47296838Y29114683D01*
X47370620Y29000022D01*
X47303569Y28901890D01*
X47264710Y28710000D01*
X28090757Y28710000D01*
X28064090Y28751441D01*
X27851890Y28896431D01*
X27600000Y28947440D01*
X24400000Y28947440D01*
X24164683Y28903162D01*
X23948559Y28764090D01*
X23945764Y28760000D01*
X23814802Y28760000D01*
X22127000Y30447802D01*
X22127000Y31798198D01*
X22462599Y31462599D01*
X22709160Y31297852D01*
X23000000Y31240000D01*
X24052560Y31240000D01*
X24052560Y30400000D01*
X24096838Y30164683D01*
X24235910Y29948559D01*
X24448110Y29803569D01*
X24700000Y29752560D01*
X27400000Y29752560D01*
X27635317Y29796838D01*
X27851441Y29935910D01*
X27996431Y30148110D01*
X28047440Y30400000D01*
X28047440Y33600000D01*
X28003162Y33835317D01*
X27864090Y34051441D01*
X27651890Y34196431D01*
X27400000Y34247440D01*
X24700000Y34247440D01*
X24464683Y34203162D01*
X24248559Y34064090D01*
X24103569Y33851890D01*
X24052560Y33600000D01*
X24052560Y32760000D01*
X23314802Y32760000D01*
X22187401Y33887401D01*
X22127000Y33927760D01*
X22127000Y35177143D01*
X22180839Y35187852D01*
X22427401Y35352599D01*
X23314802Y36240000D01*
X24052560Y36240000D01*
X24052560Y35400000D01*
X24096838Y35164683D01*
X24235910Y34948559D01*
X24448110Y34803569D01*
X24700000Y34752560D01*
X27400000Y34752560D01*
X27635317Y34796838D01*
X27851441Y34935910D01*
X27996431Y35148110D01*
X28047440Y35400000D01*
X28047440Y38600000D01*
X28003162Y38835317D01*
X27864090Y39051441D01*
X27651890Y39196431D01*
X27400000Y39247440D01*
X24700000Y39247440D01*
X24464683Y39203162D01*
X24248559Y39064090D01*
X24103569Y38851890D01*
X24052560Y38600000D01*
X24052560Y37760000D01*
X23000000Y37760000D01*
X22709161Y37702148D01*
X22462599Y37537401D01*
X22127000Y37201802D01*
X22127000Y40000000D01*
X22116994Y40049410D01*
X22088553Y40091035D01*
X22046159Y40118315D01*
X22003673Y40126309D01*
X44740000Y40126309D01*
X44740000Y39535750D01*
X44898750Y39377000D01*
X45873000Y39377000D01*
X45873000Y40476250D01*
X46127000Y40476250D01*
X46127000Y39377000D01*
X47101250Y39377000D01*
X47260000Y39535750D01*
X47260000Y40126309D01*
X47163327Y40359698D01*
X46984699Y40538327D01*
X46751310Y40635000D01*
X46285750Y40635000D01*
X46127000Y40476250D01*
X45873000Y40476250D01*
X45714250Y40635000D01*
X45248690Y40635000D01*
X45015301Y40538327D01*
X44836673Y40359698D01*
X44740000Y40126309D01*
X22003673Y40126309D01*
X22000000Y40127000D01*
X20501802Y40127000D01*
X20639680Y40264878D01*
X20685167Y40264838D01*
X21028943Y40406883D01*
X21292192Y40669673D01*
X21434838Y41013201D01*
X21435162Y41385167D01*
X21293117Y41728943D01*
X21030327Y41992192D01*
X20686799Y42134838D01*
X20314833Y42135162D01*
X19971057Y41993117D01*
X19707808Y41730327D01*
X19565162Y41386799D01*
X19565121Y41339923D01*
X18352198Y40127000D01*
X15885354Y40127000D01*
X15773922Y40396686D01*
X15238505Y40933039D01*
X14538590Y41223668D01*
X13780735Y41224330D01*
X13080314Y40934922D01*
X12543961Y40399505D01*
X12430807Y40127000D01*
X10297440Y40127000D01*
X10297440Y41400000D01*
X10253162Y41635317D01*
X10114090Y41851441D01*
X9901890Y41996431D01*
X9868510Y42003191D01*
X10009699Y42061673D01*
X10188327Y42240302D01*
X10285000Y42473691D01*
X10285000Y42714250D01*
X42365000Y42714250D01*
X42365000Y42248690D01*
X42461673Y42015301D01*
X42640302Y41836673D01*
X42873691Y41740000D01*
X43464250Y41740000D01*
X43623000Y41898750D01*
X43623000Y42873000D01*
X42523750Y42873000D01*
X42365000Y42714250D01*
X10285000Y42714250D01*
X10285000Y43064250D01*
X10126250Y43223000D01*
X9127000Y43223000D01*
X9127000Y43203000D01*
X8873000Y43203000D01*
X8873000Y43223000D01*
X7873750Y43223000D01*
X7715000Y43064250D01*
X7715000Y42473691D01*
X7811673Y42240302D01*
X7990301Y42061673D01*
X8126287Y42005346D01*
X8114683Y42003162D01*
X7898559Y41864090D01*
X7753569Y41651890D01*
X7702560Y41400000D01*
X7702560Y40127000D01*
X7597802Y40127000D01*
X7297440Y40427362D01*
X7297440Y41400000D01*
X7253162Y41635317D01*
X7114090Y41851441D01*
X6901890Y41996431D01*
X6868510Y42003191D01*
X7009699Y42061673D01*
X7188327Y42240302D01*
X7285000Y42473691D01*
X7285000Y43064250D01*
X7126250Y43223000D01*
X6127000Y43223000D01*
X6127000Y43203000D01*
X5873000Y43203000D01*
X5873000Y43223000D01*
X4873750Y43223000D01*
X4715000Y43064250D01*
X4715000Y42473691D01*
X4811673Y42240302D01*
X4990301Y42061673D01*
X5126287Y42005346D01*
X5114683Y42003162D01*
X4898559Y41864090D01*
X4753569Y41651890D01*
X4702560Y41400000D01*
X4702560Y40127000D01*
X710000Y40127000D01*
X710000Y44226309D01*
X4715000Y44226309D01*
X4715000Y43635750D01*
X4873750Y43477000D01*
X5873000Y43477000D01*
X5873000Y44576250D01*
X6127000Y44576250D01*
X6127000Y43477000D01*
X7126250Y43477000D01*
X7285000Y43635750D01*
X7285000Y44226309D01*
X7715000Y44226309D01*
X7715000Y43635750D01*
X7873750Y43477000D01*
X8873000Y43477000D01*
X8873000Y44576250D01*
X9127000Y44576250D01*
X9127000Y43477000D01*
X10126250Y43477000D01*
X10285000Y43635750D01*
X10285000Y43751310D01*
X42365000Y43751310D01*
X42365000Y43285750D01*
X42523750Y43127000D01*
X43623000Y43127000D01*
X43623000Y44101250D01*
X43464250Y44260000D01*
X42873691Y44260000D01*
X42640302Y44163327D01*
X42461673Y43984699D01*
X42365000Y43751310D01*
X10285000Y43751310D01*
X10285000Y44226309D01*
X10188327Y44459698D01*
X10009699Y44638327D01*
X9776310Y44735000D01*
X9285750Y44735000D01*
X9127000Y44576250D01*
X8873000Y44576250D01*
X8714250Y44735000D01*
X8223690Y44735000D01*
X7990301Y44638327D01*
X7811673Y44459698D01*
X7715000Y44226309D01*
X7285000Y44226309D01*
X7188327Y44459698D01*
X7009699Y44638327D01*
X6776310Y44735000D01*
X6285750Y44735000D01*
X6127000Y44576250D01*
X5873000Y44576250D01*
X5714250Y44735000D01*
X5223690Y44735000D01*
X4990301Y44638327D01*
X4811673Y44459698D01*
X4715000Y44226309D01*
X710000Y44226309D01*
X710000Y52630000D01*
X13298193Y52630000D01*
X12980345Y52312707D01*
X12980345Y52312707D01*
G37*
X12980345Y52312707D02*
X12573464Y51332827D01*
X12572538Y50271828D01*
X12977709Y49291239D01*
X13727293Y48540345D01*
X14707173Y48133464D01*
X15768172Y48132538D01*
X16748761Y48537709D01*
X17499655Y49287293D01*
X17659071Y49671211D01*
X17736330Y49555585D01*
X18222511Y49230729D01*
X18796000Y49116655D01*
X19369489Y49230729D01*
X19855670Y49555585D01*
X20066000Y49870366D01*
X20276330Y49555585D01*
X20762511Y49230729D01*
X21336000Y49116655D01*
X21909489Y49230729D01*
X22395670Y49555585D01*
X22606000Y49870366D01*
X22816330Y49555585D01*
X23302511Y49230729D01*
X23876000Y49116655D01*
X24449489Y49230729D01*
X24935670Y49555585D01*
X25142461Y49865069D01*
X25513964Y49449268D01*
X26041209Y49195291D01*
X26056974Y49192642D01*
X26289000Y49313783D01*
X26289000Y50673000D01*
X26269000Y50673000D01*
X26269000Y50927000D01*
X26289000Y50927000D01*
X26289000Y52286217D01*
X26543000Y52286217D01*
X26543000Y50927000D01*
X26563000Y50927000D01*
X26563000Y50673000D01*
X26543000Y50673000D01*
X26543000Y49313783D01*
X26775026Y49192642D01*
X26790791Y49195291D01*
X27318036Y49449268D01*
X27689539Y49865069D01*
X27896330Y49555585D01*
X28382511Y49230729D01*
X28956000Y49116655D01*
X29529489Y49230729D01*
X30015670Y49555585D01*
X30226000Y49870366D01*
X30436330Y49555585D01*
X30922511Y49230729D01*
X31496000Y49116655D01*
X32069489Y49230729D01*
X32555670Y49555585D01*
X32766000Y49870366D01*
X32976330Y49555585D01*
X33462511Y49230729D01*
X34036000Y49116655D01*
X34609489Y49230729D01*
X35095670Y49555585D01*
X35306000Y49870366D01*
X35516330Y49555585D01*
X36002511Y49230729D01*
X36576000Y49116655D01*
X37149489Y49230729D01*
X37635670Y49555585D01*
X37846000Y49870366D01*
X38056330Y49555585D01*
X38542511Y49230729D01*
X39116000Y49116655D01*
X39689489Y49230729D01*
X40175670Y49555585D01*
X40386000Y49870366D01*
X40596330Y49555585D01*
X41082511Y49230729D01*
X41656000Y49116655D01*
X42229489Y49230729D01*
X42715670Y49555585D01*
X43040526Y50041766D01*
X43154600Y50615255D01*
X43154600Y50984745D01*
X43040526Y51558234D01*
X42715670Y52044415D01*
X42229489Y52369271D01*
X41656000Y52483345D01*
X41082511Y52369271D01*
X40596330Y52044415D01*
X40386000Y51729634D01*
X40175670Y52044415D01*
X39689489Y52369271D01*
X39116000Y52483345D01*
X38542511Y52369271D01*
X38056330Y52044415D01*
X37846000Y51729634D01*
X37635670Y52044415D01*
X37149489Y52369271D01*
X36576000Y52483345D01*
X36002511Y52369271D01*
X35516330Y52044415D01*
X35306000Y51729634D01*
X35095670Y52044415D01*
X34609489Y52369271D01*
X34036000Y52483345D01*
X33462511Y52369271D01*
X32976330Y52044415D01*
X32766000Y51729634D01*
X32555670Y52044415D01*
X32069489Y52369271D01*
X31496000Y52483345D01*
X30922511Y52369271D01*
X30436330Y52044415D01*
X30226000Y51729634D01*
X30015670Y52044415D01*
X29529489Y52369271D01*
X28956000Y52483345D01*
X28382511Y52369271D01*
X27896330Y52044415D01*
X27689539Y51734931D01*
X27318036Y52150732D01*
X26790791Y52404709D01*
X26775026Y52407358D01*
X26543000Y52286217D01*
X26289000Y52286217D01*
X26056974Y52407358D01*
X26041209Y52404709D01*
X25513964Y52150732D01*
X25142461Y51734931D01*
X24935670Y52044415D01*
X24449489Y52369271D01*
X23876000Y52483345D01*
X23302511Y52369271D01*
X22816330Y52044415D01*
X22606000Y51729634D01*
X22395670Y52044415D01*
X21909489Y52369271D01*
X21336000Y52483345D01*
X20762511Y52369271D01*
X20276330Y52044415D01*
X20066000Y51729634D01*
X19855670Y52044415D01*
X19369489Y52369271D01*
X18796000Y52483345D01*
X18222511Y52369271D01*
X17736330Y52044415D01*
X17659208Y51928993D01*
X17502291Y52308761D01*
X17181612Y52630000D01*
X46475198Y52630000D01*
X46227579Y52382381D01*
X45720000Y52483345D01*
X45146511Y52369271D01*
X44660330Y52044415D01*
X44335474Y51558234D01*
X44221400Y50984745D01*
X44221400Y50615255D01*
X44335474Y50041766D01*
X44660330Y49555585D01*
X45146511Y49230729D01*
X45720000Y49116655D01*
X46293489Y49230729D01*
X46779670Y49555585D01*
X46990000Y49870366D01*
X47200330Y49555585D01*
X47686511Y49230729D01*
X48260000Y49116655D01*
X48833489Y49230729D01*
X49319670Y49555585D01*
X49530000Y49870366D01*
X49740330Y49555585D01*
X50040000Y49355352D01*
X50040000Y48663440D01*
X48984000Y48663440D01*
X48748683Y48619162D01*
X48532559Y48480090D01*
X48387569Y48267890D01*
X48336560Y48016000D01*
X48336560Y45984000D01*
X48380838Y45748683D01*
X48519910Y45532559D01*
X48732110Y45387569D01*
X48984000Y45336560D01*
X51016000Y45336560D01*
X51251317Y45380838D01*
X51404799Y45479601D01*
X50069436Y44144238D01*
X49993117Y44328943D01*
X49730327Y44592192D01*
X49386799Y44734838D01*
X49014833Y44735162D01*
X48671057Y44593117D01*
X48407808Y44330327D01*
X48265162Y43986799D01*
X48265121Y43939923D01*
X48122638Y43797440D01*
X47800000Y43797440D01*
X47621319Y43763819D01*
X47603162Y43860317D01*
X47464090Y44076441D01*
X47251890Y44221431D01*
X47000000Y44272440D01*
X45500000Y44272440D01*
X45264683Y44228162D01*
X45048559Y44089090D01*
X45002031Y44020994D01*
X44859698Y44163327D01*
X44626309Y44260000D01*
X44035750Y44260000D01*
X43877000Y44101250D01*
X43877000Y43127000D01*
X43897000Y43127000D01*
X43897000Y42873000D01*
X43877000Y42873000D01*
X43877000Y41898750D01*
X44035750Y41740000D01*
X44626309Y41740000D01*
X44859698Y41836673D01*
X45000936Y41977910D01*
X45035910Y41923559D01*
X45248110Y41778569D01*
X45500000Y41727560D01*
X47000000Y41727560D01*
X47214526Y41767926D01*
X47203569Y41751890D01*
X47152560Y41500000D01*
X47152560Y40850000D01*
X47196838Y40614683D01*
X47335910Y40398559D01*
X47548110Y40253569D01*
X47800000Y40202560D01*
X48650000Y40202560D01*
X48885317Y40246838D01*
X48988646Y40313328D01*
X48990301Y40311673D01*
X49223690Y40215000D01*
X49489250Y40215000D01*
X49648000Y40373750D01*
X49648000Y41048000D01*
X49902000Y41048000D01*
X49902000Y40373750D01*
X50060750Y40215000D01*
X50326310Y40215000D01*
X50559699Y40311673D01*
X50738327Y40490302D01*
X50835000Y40723691D01*
X50835000Y40889250D01*
X50676250Y41048000D01*
X49902000Y41048000D01*
X49648000Y41048000D01*
X49628000Y41048000D01*
X49628000Y41205767D01*
X49744436Y41322000D01*
X49902000Y41322000D01*
X49902000Y41302000D01*
X50676250Y41302000D01*
X50835000Y41460750D01*
X50835000Y41626309D01*
X50738327Y41859698D01*
X50597090Y42000936D01*
X50651441Y42035910D01*
X50796431Y42248110D01*
X50847440Y42500000D01*
X50847440Y42772638D01*
X50851112Y42776310D01*
X51265000Y42776310D01*
X51265000Y42285750D01*
X51423750Y42127000D01*
X52523000Y42127000D01*
X52523000Y43126250D01*
X52364250Y43285000D01*
X51773691Y43285000D01*
X51540302Y43188327D01*
X51361673Y43009699D01*
X51265000Y42776310D01*
X50851112Y42776310D01*
X53077401Y45002599D01*
X53242148Y45249161D01*
X53297243Y45526142D01*
X53707433Y45800222D01*
X54065325Y46335845D01*
X54191000Y46967655D01*
X54191000Y47032345D01*
X54065325Y47664155D01*
X53707433Y48199778D01*
X53300000Y48472016D01*
X53300000Y49124611D01*
X53340000Y49116655D01*
X53913489Y49230729D01*
X54399670Y49555585D01*
X54610000Y49870366D01*
X54820330Y49555585D01*
X55120000Y49355352D01*
X55120000Y43297440D01*
X54803722Y43297440D01*
X54934838Y43613201D01*
X54935162Y43985167D01*
X54793117Y44328943D01*
X54530327Y44592192D01*
X54186799Y44734838D01*
X53814833Y44735162D01*
X53471057Y44593117D01*
X53207808Y44330327D01*
X53065162Y43986799D01*
X53064838Y43614833D01*
X53201122Y43285000D01*
X52935750Y43285000D01*
X52777000Y43126250D01*
X52777000Y42127000D01*
X52797000Y42127000D01*
X52797000Y41873000D01*
X52777000Y41873000D01*
X52777000Y41853000D01*
X52523000Y41853000D01*
X52523000Y41873000D01*
X51423750Y41873000D01*
X51265000Y41714250D01*
X51265000Y41223690D01*
X51361673Y40990301D01*
X51363042Y40988932D01*
X51303569Y40901890D01*
X51252560Y40650000D01*
X51252560Y39350000D01*
X51296838Y39114683D01*
X51370620Y39000022D01*
X51303569Y38901890D01*
X51274836Y38760000D01*
X47260000Y38760000D01*
X47260000Y38964250D01*
X47101250Y39123000D01*
X46127000Y39123000D01*
X46127000Y39103000D01*
X45873000Y39103000D01*
X45873000Y39123000D01*
X44898750Y39123000D01*
X44740000Y38964250D01*
X44740000Y38760000D01*
X44400000Y38760000D01*
X44109161Y38702148D01*
X43862599Y38537401D01*
X43622638Y38297440D01*
X42600000Y38297440D01*
X42364683Y38253162D01*
X42148559Y38114090D01*
X42003569Y37901890D01*
X42000919Y37888803D01*
X41864090Y38101441D01*
X41651890Y38246431D01*
X41400000Y38297440D01*
X39900000Y38297440D01*
X39664683Y38253162D01*
X39448559Y38114090D01*
X39303569Y37901890D01*
X39274836Y37760000D01*
X35947440Y37760000D01*
X35947440Y38600000D01*
X35903162Y38835317D01*
X35764090Y39051441D01*
X35551890Y39196431D01*
X35300000Y39247440D01*
X32600000Y39247440D01*
X32364683Y39203162D01*
X32148559Y39064090D01*
X32003569Y38851890D01*
X31952560Y38600000D01*
X31952560Y35400000D01*
X31996838Y35164683D01*
X32135910Y34948559D01*
X32348110Y34803569D01*
X32600000Y34752560D01*
X35300000Y34752560D01*
X35426220Y34776310D01*
X36265000Y34776310D01*
X36265000Y34285750D01*
X36423750Y34127000D01*
X37523000Y34127000D01*
X37523000Y35126250D01*
X37364250Y35285000D01*
X36773691Y35285000D01*
X36540302Y35188327D01*
X36361673Y35009699D01*
X36265000Y34776310D01*
X35426220Y34776310D01*
X35535317Y34796838D01*
X35751441Y34935910D01*
X35896431Y35148110D01*
X35947440Y35400000D01*
X35947440Y36240000D01*
X39273258Y36240000D01*
X39296838Y36114683D01*
X39435910Y35898559D01*
X39648110Y35753569D01*
X39900000Y35702560D01*
X40222638Y35702560D01*
X40627758Y35297440D01*
X39600000Y35297440D01*
X39364683Y35253162D01*
X39148559Y35114090D01*
X39003569Y34901890D01*
X38996809Y34868510D01*
X38938327Y35009699D01*
X38759698Y35188327D01*
X38526309Y35285000D01*
X37935750Y35285000D01*
X37777000Y35126250D01*
X37777000Y34127000D01*
X37797000Y34127000D01*
X37797000Y33873000D01*
X37777000Y33873000D01*
X37777000Y33853000D01*
X37523000Y33853000D01*
X37523000Y33873000D01*
X36423750Y33873000D01*
X36265000Y33714250D01*
X36265000Y33223690D01*
X36361673Y32990301D01*
X36540302Y32811673D01*
X36665052Y32760000D01*
X35947440Y32760000D01*
X35947440Y33600000D01*
X35903162Y33835317D01*
X35764090Y34051441D01*
X35551890Y34196431D01*
X35300000Y34247440D01*
X32600000Y34247440D01*
X32364683Y34203162D01*
X32148559Y34064090D01*
X32003569Y33851890D01*
X31952560Y33600000D01*
X31952560Y30400000D01*
X31996838Y30164683D01*
X32135910Y29948559D01*
X32348110Y29803569D01*
X32600000Y29752560D01*
X35300000Y29752560D01*
X35535317Y29796838D01*
X35751441Y29935910D01*
X35896431Y30148110D01*
X35947440Y30400000D01*
X35947440Y31240000D01*
X43200000Y31240000D01*
X43490839Y31297852D01*
X43737401Y31462599D01*
X44480489Y32205687D01*
X44570000Y32187560D01*
X45237638Y32187560D01*
X47252560Y30172638D01*
X47252560Y29350000D01*
X47296838Y29114683D01*
X47370620Y29000022D01*
X47303569Y28901890D01*
X47264710Y28710000D01*
X28090757Y28710000D01*
X28064090Y28751441D01*
X27851890Y28896431D01*
X27600000Y28947440D01*
X24400000Y28947440D01*
X24164683Y28903162D01*
X23948559Y28764090D01*
X23945764Y28760000D01*
X23814802Y28760000D01*
X22127000Y30447802D01*
X22127000Y31798198D01*
X22462599Y31462599D01*
X22709160Y31297852D01*
X23000000Y31240000D01*
X24052560Y31240000D01*
X24052560Y30400000D01*
X24096838Y30164683D01*
X24235910Y29948559D01*
X24448110Y29803569D01*
X24700000Y29752560D01*
X27400000Y29752560D01*
X27635317Y29796838D01*
X27851441Y29935910D01*
X27996431Y30148110D01*
X28047440Y30400000D01*
X28047440Y33600000D01*
X28003162Y33835317D01*
X27864090Y34051441D01*
X27651890Y34196431D01*
X27400000Y34247440D01*
X24700000Y34247440D01*
X24464683Y34203162D01*
X24248559Y34064090D01*
X24103569Y33851890D01*
X24052560Y33600000D01*
X24052560Y32760000D01*
X23314802Y32760000D01*
X22187401Y33887401D01*
X22127000Y33927760D01*
X22127000Y35177143D01*
X22180839Y35187852D01*
X22427401Y35352599D01*
X23314802Y36240000D01*
X24052560Y36240000D01*
X24052560Y35400000D01*
X24096838Y35164683D01*
X24235910Y34948559D01*
X24448110Y34803569D01*
X24700000Y34752560D01*
X27400000Y34752560D01*
X27635317Y34796838D01*
X27851441Y34935910D01*
X27996431Y35148110D01*
X28047440Y35400000D01*
X28047440Y38600000D01*
X28003162Y38835317D01*
X27864090Y39051441D01*
X27651890Y39196431D01*
X27400000Y39247440D01*
X24700000Y39247440D01*
X24464683Y39203162D01*
X24248559Y39064090D01*
X24103569Y38851890D01*
X24052560Y38600000D01*
X24052560Y37760000D01*
X23000000Y37760000D01*
X22709161Y37702148D01*
X22462599Y37537401D01*
X22127000Y37201802D01*
X22127000Y40000000D01*
X22116994Y40049410D01*
X22088553Y40091035D01*
X22046159Y40118315D01*
X22003673Y40126309D01*
X44740000Y40126309D01*
X44740000Y39535750D01*
X44898750Y39377000D01*
X45873000Y39377000D01*
X45873000Y40476250D01*
X46127000Y40476250D01*
X46127000Y39377000D01*
X47101250Y39377000D01*
X47260000Y39535750D01*
X47260000Y40126309D01*
X47163327Y40359698D01*
X46984699Y40538327D01*
X46751310Y40635000D01*
X46285750Y40635000D01*
X46127000Y40476250D01*
X45873000Y40476250D01*
X45714250Y40635000D01*
X45248690Y40635000D01*
X45015301Y40538327D01*
X44836673Y40359698D01*
X44740000Y40126309D01*
X22003673Y40126309D01*
X22000000Y40127000D01*
X20501802Y40127000D01*
X20639680Y40264878D01*
X20685167Y40264838D01*
X21028943Y40406883D01*
X21292192Y40669673D01*
X21434838Y41013201D01*
X21435162Y41385167D01*
X21293117Y41728943D01*
X21030327Y41992192D01*
X20686799Y42134838D01*
X20314833Y42135162D01*
X19971057Y41993117D01*
X19707808Y41730327D01*
X19565162Y41386799D01*
X19565121Y41339923D01*
X18352198Y40127000D01*
X15885354Y40127000D01*
X15773922Y40396686D01*
X15238505Y40933039D01*
X14538590Y41223668D01*
X13780735Y41224330D01*
X13080314Y40934922D01*
X12543961Y40399505D01*
X12430807Y40127000D01*
X10297440Y40127000D01*
X10297440Y41400000D01*
X10253162Y41635317D01*
X10114090Y41851441D01*
X9901890Y41996431D01*
X9868510Y42003191D01*
X10009699Y42061673D01*
X10188327Y42240302D01*
X10285000Y42473691D01*
X10285000Y42714250D01*
X42365000Y42714250D01*
X42365000Y42248690D01*
X42461673Y42015301D01*
X42640302Y41836673D01*
X42873691Y41740000D01*
X43464250Y41740000D01*
X43623000Y41898750D01*
X43623000Y42873000D01*
X42523750Y42873000D01*
X42365000Y42714250D01*
X10285000Y42714250D01*
X10285000Y43064250D01*
X10126250Y43223000D01*
X9127000Y43223000D01*
X9127000Y43203000D01*
X8873000Y43203000D01*
X8873000Y43223000D01*
X7873750Y43223000D01*
X7715000Y43064250D01*
X7715000Y42473691D01*
X7811673Y42240302D01*
X7990301Y42061673D01*
X8126287Y42005346D01*
X8114683Y42003162D01*
X7898559Y41864090D01*
X7753569Y41651890D01*
X7702560Y41400000D01*
X7702560Y40127000D01*
X7597802Y40127000D01*
X7297440Y40427362D01*
X7297440Y41400000D01*
X7253162Y41635317D01*
X7114090Y41851441D01*
X6901890Y41996431D01*
X6868510Y42003191D01*
X7009699Y42061673D01*
X7188327Y42240302D01*
X7285000Y42473691D01*
X7285000Y43064250D01*
X7126250Y43223000D01*
X6127000Y43223000D01*
X6127000Y43203000D01*
X5873000Y43203000D01*
X5873000Y43223000D01*
X4873750Y43223000D01*
X4715000Y43064250D01*
X4715000Y42473691D01*
X4811673Y42240302D01*
X4990301Y42061673D01*
X5126287Y42005346D01*
X5114683Y42003162D01*
X4898559Y41864090D01*
X4753569Y41651890D01*
X4702560Y41400000D01*
X4702560Y40127000D01*
X710000Y40127000D01*
X710000Y44226309D01*
X4715000Y44226309D01*
X4715000Y43635750D01*
X4873750Y43477000D01*
X5873000Y43477000D01*
X5873000Y44576250D01*
X6127000Y44576250D01*
X6127000Y43477000D01*
X7126250Y43477000D01*
X7285000Y43635750D01*
X7285000Y44226309D01*
X7715000Y44226309D01*
X7715000Y43635750D01*
X7873750Y43477000D01*
X8873000Y43477000D01*
X8873000Y44576250D01*
X9127000Y44576250D01*
X9127000Y43477000D01*
X10126250Y43477000D01*
X10285000Y43635750D01*
X10285000Y43751310D01*
X42365000Y43751310D01*
X42365000Y43285750D01*
X42523750Y43127000D01*
X43623000Y43127000D01*
X43623000Y44101250D01*
X43464250Y44260000D01*
X42873691Y44260000D01*
X42640302Y44163327D01*
X42461673Y43984699D01*
X42365000Y43751310D01*
X10285000Y43751310D01*
X10285000Y44226309D01*
X10188327Y44459698D01*
X10009699Y44638327D01*
X9776310Y44735000D01*
X9285750Y44735000D01*
X9127000Y44576250D01*
X8873000Y44576250D01*
X8714250Y44735000D01*
X8223690Y44735000D01*
X7990301Y44638327D01*
X7811673Y44459698D01*
X7715000Y44226309D01*
X7285000Y44226309D01*
X7188327Y44459698D01*
X7009699Y44638327D01*
X6776310Y44735000D01*
X6285750Y44735000D01*
X6127000Y44576250D01*
X5873000Y44576250D01*
X5714250Y44735000D01*
X5223690Y44735000D01*
X4990301Y44638327D01*
X4811673Y44459698D01*
X4715000Y44226309D01*
X710000Y44226309D01*
X710000Y52630000D01*
X13298193Y52630000D01*
X12980345Y52312707D01*
G36*
X51296838Y37114683D02*
X51435910Y36898559D01*
X51648110Y36753569D01*
X51900000Y36702560D01*
X53400000Y36702560D01*
X53635317Y36746838D01*
X53851441Y36885910D01*
X53996431Y37098110D01*
X53999081Y37111197D01*
X54135910Y36898559D01*
X54348110Y36753569D01*
X54590000Y36704585D01*
X54590000Y34164802D01*
X51722638Y31297440D01*
X50886253Y31297440D01*
X51101441Y31435910D01*
X51246431Y31648110D01*
X51297440Y31900000D01*
X51297440Y33400000D01*
X51253162Y33635317D01*
X51114090Y33851441D01*
X50901890Y33996431D01*
X50868510Y34003191D01*
X51009699Y34061673D01*
X51188327Y34240302D01*
X51285000Y34473691D01*
X51285000Y35064250D01*
X51126250Y35223000D01*
X50127000Y35223000D01*
X50127000Y35203000D01*
X49873000Y35203000D01*
X49873000Y35223000D01*
X49853000Y35223000D01*
X49853000Y35477000D01*
X49873000Y35477000D01*
X49873000Y36576250D01*
X50127000Y36576250D01*
X50127000Y35477000D01*
X51126250Y35477000D01*
X51285000Y35635750D01*
X51285000Y36226309D01*
X51188327Y36459698D01*
X51009699Y36638327D01*
X50776310Y36735000D01*
X50285750Y36735000D01*
X50127000Y36576250D01*
X49873000Y36576250D01*
X49714250Y36735000D01*
X49223690Y36735000D01*
X48990301Y36638327D01*
X48988932Y36636958D01*
X48901890Y36696431D01*
X48650000Y36747440D01*
X47350000Y36747440D01*
X47272440Y36732846D01*
X47272440Y37240000D01*
X51273258Y37240000D01*
X51296838Y37114683D01*
X51296838Y37114683D01*
G37*
X51296838Y37114683D02*
X51435910Y36898559D01*
X51648110Y36753569D01*
X51900000Y36702560D01*
X53400000Y36702560D01*
X53635317Y36746838D01*
X53851441Y36885910D01*
X53996431Y37098110D01*
X53999081Y37111197D01*
X54135910Y36898559D01*
X54348110Y36753569D01*
X54590000Y36704585D01*
X54590000Y34164802D01*
X51722638Y31297440D01*
X50886253Y31297440D01*
X51101441Y31435910D01*
X51246431Y31648110D01*
X51297440Y31900000D01*
X51297440Y33400000D01*
X51253162Y33635317D01*
X51114090Y33851441D01*
X50901890Y33996431D01*
X50868510Y34003191D01*
X51009699Y34061673D01*
X51188327Y34240302D01*
X51285000Y34473691D01*
X51285000Y35064250D01*
X51126250Y35223000D01*
X50127000Y35223000D01*
X50127000Y35203000D01*
X49873000Y35203000D01*
X49873000Y35223000D01*
X49853000Y35223000D01*
X49853000Y35477000D01*
X49873000Y35477000D01*
X49873000Y36576250D01*
X50127000Y36576250D01*
X50127000Y35477000D01*
X51126250Y35477000D01*
X51285000Y35635750D01*
X51285000Y36226309D01*
X51188327Y36459698D01*
X51009699Y36638327D01*
X50776310Y36735000D01*
X50285750Y36735000D01*
X50127000Y36576250D01*
X49873000Y36576250D01*
X49714250Y36735000D01*
X49223690Y36735000D01*
X48990301Y36638327D01*
X48988932Y36636958D01*
X48901890Y36696431D01*
X48650000Y36747440D01*
X47350000Y36747440D01*
X47272440Y36732846D01*
X47272440Y37240000D01*
X51273258Y37240000D01*
X51296838Y37114683D01*
G36*
X16050560Y35128000D02*
X16094838Y34892683D01*
X16233910Y34676559D01*
X16446110Y34531569D01*
X16629124Y34494508D01*
X16276371Y34142370D01*
X16063243Y33629100D01*
X16062758Y33073339D01*
X16274990Y32559697D01*
X16667630Y32166371D01*
X16875512Y32080051D01*
X16669697Y31995010D01*
X16276371Y31602370D01*
X16063243Y31089100D01*
X16062758Y30533339D01*
X16274990Y30019697D01*
X16667630Y29626371D01*
X16875512Y29540051D01*
X16669697Y29455010D01*
X16276371Y29062370D01*
X16063243Y28549100D01*
X16062758Y27993339D01*
X16274990Y27479697D01*
X16667630Y27086371D01*
X17180900Y26873243D01*
X17736661Y26872758D01*
X18250303Y27084990D01*
X18373225Y27207698D01*
X18590856Y27207698D01*
X18618638Y26652632D01*
X18777603Y26268857D01*
X19019787Y26199392D01*
X19820395Y27000000D01*
X19019787Y27800608D01*
X18777603Y27731143D01*
X18590856Y27207698D01*
X18373225Y27207698D01*
X18643629Y27477630D01*
X18856757Y27990900D01*
X18857242Y28546661D01*
X18645010Y29060303D01*
X18252370Y29453629D01*
X18044488Y29539949D01*
X18250303Y29624990D01*
X18643629Y30017630D01*
X18856757Y30530900D01*
X18857242Y31086661D01*
X18645010Y31600303D01*
X18252370Y31993629D01*
X18044488Y32079949D01*
X18250303Y32164990D01*
X18643629Y32557630D01*
X18657070Y32590000D01*
X18699121Y32590000D01*
X18603243Y32359100D01*
X18602758Y31803339D01*
X18814990Y31289697D01*
X19207630Y30896371D01*
X19415512Y30810051D01*
X19209697Y30725010D01*
X18816371Y30332370D01*
X18603243Y29819100D01*
X18602758Y29263339D01*
X18814990Y28749697D01*
X19207630Y28356371D01*
X19295739Y28319785D01*
X19297852Y28309161D01*
X19336973Y28250612D01*
X19268857Y28222397D01*
X19199392Y27980213D01*
X20000000Y27179605D01*
X20014143Y27193747D01*
X20193748Y27014142D01*
X20179605Y27000000D01*
X20193748Y26985857D01*
X20014143Y26806252D01*
X20000000Y26820395D01*
X19199392Y26019787D01*
X19268857Y25777603D01*
X19792302Y25590856D01*
X20347368Y25618638D01*
X20731143Y25777603D01*
X20800607Y26019785D01*
X20873000Y25947392D01*
X20873000Y19127000D01*
X20235000Y19127000D01*
X20235000Y20164250D01*
X20076250Y20323000D01*
X18127000Y20323000D01*
X18127000Y20303000D01*
X17873000Y20303000D01*
X17873000Y20323000D01*
X15923750Y20323000D01*
X15765000Y20164250D01*
X15765000Y19127000D01*
X6127000Y19127000D01*
X6127000Y22223223D01*
X12989828Y22223223D01*
X13121520Y21928343D01*
X13829036Y21656739D01*
X14586632Y21676564D01*
X15189569Y21926309D01*
X15765000Y21926309D01*
X15765000Y20735750D01*
X15923750Y20577000D01*
X17873000Y20577000D01*
X17873000Y22276250D01*
X18127000Y22276250D01*
X18127000Y20577000D01*
X20076250Y20577000D01*
X20235000Y20735750D01*
X20235000Y21926309D01*
X20138327Y22159698D01*
X19959699Y22338327D01*
X19726310Y22435000D01*
X18285750Y22435000D01*
X18127000Y22276250D01*
X17873000Y22276250D01*
X17714250Y22435000D01*
X16273690Y22435000D01*
X16040301Y22338327D01*
X15861673Y22159698D01*
X15765000Y21926309D01*
X15189569Y21926309D01*
X15194480Y21928343D01*
X15326172Y22223223D01*
X14158000Y23391395D01*
X12989828Y22223223D01*
X6127000Y22223223D01*
X6127000Y26263470D01*
X6484461Y26263158D01*
X6978892Y26467452D01*
X6971800Y26431800D01*
X6971800Y26317931D01*
X6941497Y26305410D01*
X6548171Y25912770D01*
X6335043Y25399500D01*
X6334558Y24843739D01*
X6546790Y24330097D01*
X6939430Y23936771D01*
X7452700Y23723643D01*
X8008461Y23723158D01*
X8522103Y23935390D01*
X8915429Y24328030D01*
X8917225Y24332354D01*
X8938200Y24281590D01*
X9657801Y23560732D01*
X10598487Y23170125D01*
X11617045Y23169236D01*
X12255953Y23433227D01*
X12263564Y23142368D01*
X12515343Y22534520D01*
X12810223Y22402828D01*
X13978395Y23571000D01*
X14337605Y23571000D01*
X15505777Y22402828D01*
X15800657Y22534520D01*
X16072261Y23242036D01*
X16052436Y23999632D01*
X15800657Y24607480D01*
X15505777Y24739172D01*
X14337605Y23571000D01*
X13978395Y23571000D01*
X13964253Y23585142D01*
X14143858Y23764747D01*
X14158000Y23750605D01*
X15326172Y24918777D01*
X15194480Y25213657D01*
X14486964Y25485261D01*
X13729368Y25465436D01*
X13670069Y25440874D01*
X13670764Y26237045D01*
X13281800Y27178410D01*
X12562199Y27899268D01*
X11621513Y28289875D01*
X10665511Y28290709D01*
X10837401Y28462599D01*
X11002148Y28709160D01*
X11060000Y29000000D01*
X11060000Y30685198D01*
X16050560Y35675758D01*
X16050560Y35128000D01*
X16050560Y35128000D01*
G37*
X16050560Y35128000D02*
X16094838Y34892683D01*
X16233910Y34676559D01*
X16446110Y34531569D01*
X16629124Y34494508D01*
X16276371Y34142370D01*
X16063243Y33629100D01*
X16062758Y33073339D01*
X16274990Y32559697D01*
X16667630Y32166371D01*
X16875512Y32080051D01*
X16669697Y31995010D01*
X16276371Y31602370D01*
X16063243Y31089100D01*
X16062758Y30533339D01*
X16274990Y30019697D01*
X16667630Y29626371D01*
X16875512Y29540051D01*
X16669697Y29455010D01*
X16276371Y29062370D01*
X16063243Y28549100D01*
X16062758Y27993339D01*
X16274990Y27479697D01*
X16667630Y27086371D01*
X17180900Y26873243D01*
X17736661Y26872758D01*
X18250303Y27084990D01*
X18373225Y27207698D01*
X18590856Y27207698D01*
X18618638Y26652632D01*
X18777603Y26268857D01*
X19019787Y26199392D01*
X19820395Y27000000D01*
X19019787Y27800608D01*
X18777603Y27731143D01*
X18590856Y27207698D01*
X18373225Y27207698D01*
X18643629Y27477630D01*
X18856757Y27990900D01*
X18857242Y28546661D01*
X18645010Y29060303D01*
X18252370Y29453629D01*
X18044488Y29539949D01*
X18250303Y29624990D01*
X18643629Y30017630D01*
X18856757Y30530900D01*
X18857242Y31086661D01*
X18645010Y31600303D01*
X18252370Y31993629D01*
X18044488Y32079949D01*
X18250303Y32164990D01*
X18643629Y32557630D01*
X18657070Y32590000D01*
X18699121Y32590000D01*
X18603243Y32359100D01*
X18602758Y31803339D01*
X18814990Y31289697D01*
X19207630Y30896371D01*
X19415512Y30810051D01*
X19209697Y30725010D01*
X18816371Y30332370D01*
X18603243Y29819100D01*
X18602758Y29263339D01*
X18814990Y28749697D01*
X19207630Y28356371D01*
X19295739Y28319785D01*
X19297852Y28309161D01*
X19336973Y28250612D01*
X19268857Y28222397D01*
X19199392Y27980213D01*
X20000000Y27179605D01*
X20014143Y27193747D01*
X20193748Y27014142D01*
X20179605Y27000000D01*
X20193748Y26985857D01*
X20014143Y26806252D01*
X20000000Y26820395D01*
X19199392Y26019787D01*
X19268857Y25777603D01*
X19792302Y25590856D01*
X20347368Y25618638D01*
X20731143Y25777603D01*
X20800607Y26019785D01*
X20873000Y25947392D01*
X20873000Y19127000D01*
X20235000Y19127000D01*
X20235000Y20164250D01*
X20076250Y20323000D01*
X18127000Y20323000D01*
X18127000Y20303000D01*
X17873000Y20303000D01*
X17873000Y20323000D01*
X15923750Y20323000D01*
X15765000Y20164250D01*
X15765000Y19127000D01*
X6127000Y19127000D01*
X6127000Y22223223D01*
X12989828Y22223223D01*
X13121520Y21928343D01*
X13829036Y21656739D01*
X14586632Y21676564D01*
X15189569Y21926309D01*
X15765000Y21926309D01*
X15765000Y20735750D01*
X15923750Y20577000D01*
X17873000Y20577000D01*
X17873000Y22276250D01*
X18127000Y22276250D01*
X18127000Y20577000D01*
X20076250Y20577000D01*
X20235000Y20735750D01*
X20235000Y21926309D01*
X20138327Y22159698D01*
X19959699Y22338327D01*
X19726310Y22435000D01*
X18285750Y22435000D01*
X18127000Y22276250D01*
X17873000Y22276250D01*
X17714250Y22435000D01*
X16273690Y22435000D01*
X16040301Y22338327D01*
X15861673Y22159698D01*
X15765000Y21926309D01*
X15189569Y21926309D01*
X15194480Y21928343D01*
X15326172Y22223223D01*
X14158000Y23391395D01*
X12989828Y22223223D01*
X6127000Y22223223D01*
X6127000Y26263470D01*
X6484461Y26263158D01*
X6978892Y26467452D01*
X6971800Y26431800D01*
X6971800Y26317931D01*
X6941497Y26305410D01*
X6548171Y25912770D01*
X6335043Y25399500D01*
X6334558Y24843739D01*
X6546790Y24330097D01*
X6939430Y23936771D01*
X7452700Y23723643D01*
X8008461Y23723158D01*
X8522103Y23935390D01*
X8915429Y24328030D01*
X8917225Y24332354D01*
X8938200Y24281590D01*
X9657801Y23560732D01*
X10598487Y23170125D01*
X11617045Y23169236D01*
X12255953Y23433227D01*
X12263564Y23142368D01*
X12515343Y22534520D01*
X12810223Y22402828D01*
X13978395Y23571000D01*
X14337605Y23571000D01*
X15505777Y22402828D01*
X15800657Y22534520D01*
X16072261Y23242036D01*
X16052436Y23999632D01*
X15800657Y24607480D01*
X15505777Y24739172D01*
X14337605Y23571000D01*
X13978395Y23571000D01*
X13964253Y23585142D01*
X14143858Y23764747D01*
X14158000Y23750605D01*
X15326172Y24918777D01*
X15194480Y25213657D01*
X14486964Y25485261D01*
X13729368Y25465436D01*
X13670069Y25440874D01*
X13670764Y26237045D01*
X13281800Y27178410D01*
X12562199Y27899268D01*
X11621513Y28289875D01*
X10665511Y28290709D01*
X10837401Y28462599D01*
X11002148Y28709160D01*
X11060000Y29000000D01*
X11060000Y30685198D01*
X16050560Y35675758D01*
X16050560Y35128000D01*
G36*
X15505777Y38150828D02*
X15800657Y38282520D01*
X16027333Y38873000D01*
X17098198Y38873000D01*
X9762599Y31537401D01*
X9660000Y31383850D01*
X9660000Y34989819D01*
X10598487Y34600125D01*
X11617045Y34599236D01*
X12558410Y34988200D01*
X13279268Y35707801D01*
X13669875Y36648487D01*
X13670588Y37465565D01*
X13829036Y37404739D01*
X14586632Y37424564D01*
X15194480Y37676343D01*
X15326172Y37971223D01*
X14424395Y38873000D01*
X14783605Y38873000D01*
X15505777Y38150828D01*
X15505777Y38150828D01*
G37*
X15505777Y38150828D02*
X15800657Y38282520D01*
X16027333Y38873000D01*
X17098198Y38873000D01*
X9762599Y31537401D01*
X9660000Y31383850D01*
X9660000Y34989819D01*
X10598487Y34600125D01*
X11617045Y34599236D01*
X12558410Y34988200D01*
X13279268Y35707801D01*
X13669875Y36648487D01*
X13670588Y37465565D01*
X13829036Y37404739D01*
X14586632Y37424564D01*
X15194480Y37676343D01*
X15326172Y37971223D01*
X14424395Y38873000D01*
X14783605Y38873000D01*
X15505777Y38150828D01*
M02*
